<svg width="25" height="27" viewBox="0 0 25 27" fill="none" xmlns="http://www.w3.org/2000/svg">
<rect x="0.5" y="0.5" width="24" height="25.0185" rx="3.5" stroke="#47A1F5"/>
<g clip-path="url(#clip0_264_884)">
<path d="M12.4957 11.6284C14.0628 11.6284 15.3332 10.358 15.3332 8.79087C15.3332 7.22376 14.0628 5.95337 12.4957 5.95337C10.9286 5.95337 9.6582 7.22376 9.6582 8.79087C9.6582 10.358 10.9286 11.6284 12.4957 11.6284Z" fill="#47A1F5"/>
<path d="M10.0007 15.5783C10.0093 15.3478 10.0861 15.125 10.2214 14.9381C10.3567 14.7512 10.5443 14.6086 10.7606 14.5283C10.9769 14.4481 11.2121 14.4337 11.4365 14.4871C11.661 14.5405 11.8645 14.6593 12.0215 14.8283L13.6298 16.5575L16.4798 13.3783C15.3026 12.5938 13.9153 12.1841 12.5007 12.2033C11.5194 12.1785 10.5445 12.369 9.64473 12.7613C8.74492 13.1536 7.94197 13.7383 7.29234 14.4742C7.23738 14.5474 7.2081 14.6367 7.209 14.7283V16.9742C7.20891 17.1909 7.29326 17.3992 7.44418 17.5547C7.59509 17.7103 7.80069 17.801 8.01734 17.8075H11.5882L10.309 16.4325C10.2033 16.3178 10.1216 16.1832 10.0687 16.0365C10.0157 15.8898 9.99259 15.7341 10.0007 15.5783Z" fill="#47A1F5"/>
<path d="M16.9844 17.8075C17.2011 17.801 17.4067 17.7103 17.5576 17.5547C17.7085 17.3991 17.7929 17.1909 17.7928 16.9741V15.4075L15.6553 17.8075H16.9844Z" fill="#47A1F5"/>
<path d="M19.0715 12.2324C19.0306 12.1954 18.9828 12.167 18.9308 12.1486C18.8788 12.1303 18.8237 12.1224 18.7687 12.1255C18.7137 12.1286 18.6598 12.1426 18.6102 12.1667C18.5606 12.1908 18.5163 12.2244 18.4798 12.2657L13.6382 17.6824L11.4715 15.3532C11.4359 15.3116 11.3925 15.2775 11.3437 15.2527C11.295 15.2278 11.2418 15.2129 11.1872 15.2086C11.1327 15.2044 11.0778 15.2109 11.0258 15.2279C10.9738 15.2448 10.9256 15.2718 10.884 15.3074C10.8449 15.3461 10.8139 15.3922 10.7928 15.443C10.7716 15.4938 10.7607 15.5482 10.7607 15.6032C10.7607 15.6582 10.7716 15.7127 10.7928 15.7635C10.8139 15.8142 10.8449 15.8603 10.884 15.8991L13.6673 18.8991L19.1007 12.8074C19.1707 12.7262 19.2068 12.6211 19.2014 12.5141C19.1959 12.407 19.1494 12.3061 19.0715 12.2324Z" fill="#47A1F5"/>
</g>
<defs>
<clipPath id="clip0_264_884">
<rect width="15" height="15" fill="white" transform="translate(4.99902 4.47412)"/>
</clipPath>
</defs>
</svg>
