<svg width="14" height="16" viewBox="0 0 14 16" fill="none" xmlns="http://www.w3.org/2000/svg">
<path fill-rule="evenodd" clip-rule="evenodd" d="M11.1673 2.16667H2.83398C2.61297 2.16667 2.40101 2.25446 2.24473 2.41074C2.08845 2.56702 2.00065 2.77899 2.00065 3V13C2.00065 13.221 2.08845 13.433 2.24473 13.5893C2.40101 13.7455 2.61297 13.8333 2.83398 13.8333H11.1673C11.3883 13.8333 11.6003 13.7455 11.7566 13.5893C11.9129 13.433 12.0007 13.221 12.0007 13V3C12.0007 2.77899 11.9129 2.56702 11.7566 2.41074C11.6003 2.25446 11.3883 2.16667 11.1673 2.16667ZM2.83398 0.5C2.17094 0.5 1.53506 0.763392 1.06622 1.23223C0.597377 1.70107 0.333984 2.33696 0.333984 3V13C0.333984 13.663 0.597377 14.2989 1.06622 14.7678C1.53506 15.2366 2.17094 15.5 2.83398 15.5H11.1673C11.8304 15.5 12.4662 15.2366 12.9351 14.7678C13.4039 14.2989 13.6673 13.663 13.6673 13V3C13.6673 2.33696 13.4039 1.70107 12.9351 1.23223C12.4662 0.763392 11.8304 0.5 11.1673 0.5H2.83398Z" fill="#329DFF"/>
<path d="M3.66699 3.8335H10.3337V5.50016H3.66699V3.8335ZM3.66699 7.16683H10.3337V8.8335H3.66699V7.16683ZM3.66699 10.5002H7.83366V12.1668H3.66699V10.5002Z" fill="#329DFF"/>
</svg>
