<svg width="12" height="11" viewBox="0 0 12 11" fill="none" xmlns="http://www.w3.org/2000/svg">
<rect x="1" y="1" width="9.45205" height="10" rx="2" fill="white"/>
<g filter="url(#filter0_d_163_2788)">
<path d="M1 3C1 1.89543 1.89543 1 3 1H8.45205C9.55662 1 10.4521 1.89543 10.4521 3V5H1V3Z" fill="#767676"/>
</g>
<rect x="2.89062" y="5.8999" width="1.13425" height="1.2" fill="#474747"/>
<rect x="5.15918" y="5.8999" width="1.13425" height="1.2" fill="#474747"/>
<rect x="7.42676" y="5.8999" width="1.13425" height="1.2" fill="#474747"/>
<rect x="2.89062" y="8" width="1.13425" height="1.2" fill="#474747"/>
<rect x="5.15918" y="8" width="1.13425" height="1.2" fill="#474747"/>
<rect x="7.42676" y="8" width="1.13425" height="1.2" fill="#474747"/>
<line x1="7.11621" y1="2" x2="7.11621" y2="-2.31226e-08" stroke="white"/>
<line x1="4.28027" y1="2" x2="4.28027" y2="-2.31226e-08" stroke="white"/>
<defs>
<filter id="filter0_d_163_2788" x="0" y="1" width="11.4521" height="6" filterUnits="userSpaceOnUse" color-interpolation-filters="sRGB">
<feFlood flood-opacity="0" result="BackgroundImageFix"/>
<feColorMatrix in="SourceAlpha" type="matrix" values="0 0 0 0 0 0 0 0 0 0 0 0 0 0 0 0 0 0 127 0" result="hardAlpha"/>
<feOffset dy="1"/>
<feGaussianBlur stdDeviation="0.5"/>
<feComposite in2="hardAlpha" operator="out"/>
<feColorMatrix type="matrix" values="0 0 0 0 0 0 0 0 0 0 0 0 0 0 0 0 0 0 0.25 0"/>
<feBlend mode="normal" in2="BackgroundImageFix" result="effect1_dropShadow_163_2788"/>
<feBlend mode="normal" in="SourceGraphic" in2="effect1_dropShadow_163_2788" result="shape"/>
</filter>
</defs>
</svg>
