<svg width="225" height="149" viewBox="0 0 225 149" fill="none" xmlns="http://www.w3.org/2000/svg">
<rect x="36" y="24" width="153" height="106" rx="7" fill="#9BD6F4"/>
<g filter="url(#filter0_d_160_1534)">
<rect x="25" y="30" width="174" height="100" rx="5" fill="#318F53"/>
</g>
<g filter="url(#filter1_d_160_1534)">
<rect x="15" y="38" width="194" height="95" rx="7" fill="url(#paint0_linear_160_1534)"/>
</g>
<path opacity="0.7" d="M25.7926 52.4545H26.7386L28.9631 57.8878H29.0398L31.2642 52.4545H32.2102V59H31.4688V54.027H31.4048L29.3594 59H28.6435L26.598 54.027H26.5341V59H25.7926V52.4545ZM33.6972 59V54.0909H34.4514V59H33.6972ZM34.0807 53.2727C33.9337 53.2727 33.8069 53.2227 33.7004 53.1225C33.596 53.0224 33.5438 52.902 33.5438 52.7614C33.5438 52.6207 33.596 52.5004 33.7004 52.4002C33.8069 52.3001 33.9337 52.25 34.0807 52.25C34.2277 52.25 34.3534 52.3001 34.4578 52.4002C34.5644 52.5004 34.6176 52.6207 34.6176 52.7614C34.6176 52.902 34.5644 53.0224 34.4578 53.1225C34.3534 53.2227 34.2277 53.2727 34.0807 53.2727ZM36.5872 56.0469V59H35.8329V54.0909H36.5616V54.858H36.6255C36.7406 54.6087 36.9153 54.4084 37.1497 54.2571C37.3841 54.1037 37.6866 54.027 38.0574 54.027C38.3897 54.027 38.6806 54.0952 38.9299 54.2315C39.1792 54.3658 39.373 54.5703 39.5115 54.8452C39.65 55.1179 39.7193 55.4631 39.7193 55.8807V59H38.965V55.9318C38.965 55.5462 38.8649 55.2457 38.6646 55.0305C38.4643 54.8132 38.1895 54.7045 37.84 54.7045C37.5993 54.7045 37.3841 54.7567 37.1944 54.8612C37.0069 54.9656 36.8588 55.1179 36.7502 55.3182C36.6415 55.5185 36.5872 55.7614 36.5872 56.0469ZM41.0976 59V54.0909H41.8518V59H41.0976ZM41.4811 53.2727C41.3341 53.2727 41.2073 53.2227 41.1008 53.1225C40.9964 53.0224 40.9442 52.902 40.9442 52.7614C40.9442 52.6207 40.9964 52.5004 41.1008 52.4002C41.2073 52.3001 41.3341 52.25 41.4811 52.25C41.6281 52.25 41.7538 52.3001 41.8582 52.4002C41.9648 52.5004 42.018 52.6207 42.018 52.7614C42.018 52.902 41.9648 53.0224 41.8582 53.1225C41.7538 53.2227 41.6281 53.2727 41.4811 53.2727ZM45.8668 59V52.4545H48.1552C48.6112 52.4545 48.9872 52.5334 49.2834 52.6911C49.5795 52.8466 49.8001 53.0565 49.945 53.3207C50.0898 53.5827 50.1623 53.8736 50.1623 54.1932C50.1623 54.4744 50.1122 54.7067 50.0121 54.8899C49.9141 55.0732 49.7841 55.218 49.6222 55.3246C49.4624 55.4311 49.2887 55.5099 49.1012 55.5611V55.625C49.3015 55.6378 49.5028 55.7081 49.7053 55.8359C49.9077 55.9638 50.0771 56.147 50.2134 56.3857C50.3498 56.6243 50.418 56.9162 50.418 57.2614C50.418 57.5895 50.3434 57.8846 50.1942 58.1467C50.0451 58.4087 49.8097 58.6165 49.4879 58.7699C49.1662 58.9233 48.7475 59 48.2319 59H45.8668ZM46.6594 58.2969H48.2319C48.7496 58.2969 49.1172 58.1967 49.3345 57.9964C49.554 57.794 49.6637 57.549 49.6637 57.2614C49.6637 57.0398 49.6072 56.8352 49.4943 56.6477C49.3814 56.4581 49.2205 56.3068 49.0117 56.1939C48.8029 56.0788 48.5558 56.0213 48.2702 56.0213H46.6594V58.2969ZM46.6594 55.331H48.1296C48.3683 55.331 48.5835 55.2841 48.7752 55.1903C48.9691 55.0966 49.1225 54.9645 49.2354 54.794C49.3505 54.6236 49.408 54.4233 49.408 54.1932C49.408 53.9055 49.3079 53.6616 49.1076 53.4613C48.9073 53.2589 48.5898 53.1577 48.1552 53.1577H46.6594V55.331ZM54.7118 56.9929V54.0909H55.4661V59H54.7118V58.169H54.6607C54.5456 58.4183 54.3667 58.6303 54.1238 58.805C53.8809 58.9776 53.574 59.0639 53.2033 59.0639C52.8965 59.0639 52.6238 58.9968 52.3851 58.8626C52.1465 58.7262 51.959 58.5217 51.8226 58.2489C51.6863 57.9741 51.6181 57.6278 51.6181 57.2102V54.0909H52.3723V57.1591C52.3723 57.517 52.4725 57.8026 52.6728 58.0156C52.8752 58.2287 53.133 58.3352 53.4462 58.3352C53.6337 58.3352 53.8244 58.2873 54.0183 58.1914C54.2143 58.0955 54.3784 57.9485 54.5105 57.7504C54.6447 57.5522 54.7118 57.2997 54.7118 56.9929ZM60.3248 55.1903L59.6473 55.3821C59.6047 55.2692 59.5418 55.1594 59.4587 55.0529C59.3778 54.9442 59.267 54.8548 59.1263 54.7844C58.9857 54.7141 58.8057 54.679 58.5862 54.679C58.2858 54.679 58.0354 54.7482 57.8351 54.8867C57.637 55.0231 57.5379 55.1967 57.5379 55.4077C57.5379 55.5952 57.6061 55.7433 57.7425 55.8519C57.8788 55.9606 58.0919 56.0511 58.3817 56.1236L59.1104 56.3026C59.5493 56.4091 59.8763 56.5721 60.0915 56.7915C60.3067 57.0089 60.4143 57.2891 60.4143 57.6321C60.4143 57.9134 60.3334 58.1648 60.1714 58.3864C60.0116 58.608 59.7879 58.7827 59.5003 58.9105C59.2126 59.0384 58.8781 59.1023 58.4967 59.1023C57.996 59.1023 57.5816 58.9936 57.2535 58.7763C56.9253 58.5589 56.7176 58.2415 56.6302 57.8239L57.3461 57.6449C57.4143 57.9091 57.5432 58.1072 57.7329 58.2393C57.9246 58.3714 58.175 58.4375 58.4839 58.4375C58.8355 58.4375 59.1146 58.3629 59.3213 58.2138C59.5301 58.0625 59.6345 57.8814 59.6345 57.6705C59.6345 57.5 59.5748 57.3572 59.4555 57.2422C59.3362 57.125 59.153 57.0376 58.9058 56.9801L58.0876 56.7884C57.6381 56.6818 57.3078 56.5167 57.0969 56.293C56.8881 56.0671 56.7836 55.7848 56.7836 55.446C56.7836 55.169 56.8614 54.924 57.017 54.7109C57.1746 54.4979 57.3888 54.3306 57.6594 54.2092C57.9321 54.0877 58.241 54.027 58.5862 54.027C59.072 54.027 59.4534 54.1335 59.7304 54.3466C60.0095 54.5597 60.2077 54.8409 60.3248 55.1903Z" fill="black"/>
<path d="M25.7173 73V65.7273H27.0348V69.0689H27.1236L29.9609 65.7273H31.5696L28.7571 68.9908L31.5945 73H30.0107L27.8409 69.8821L27.0348 70.8338V73H25.7173ZM32.4849 73V65.7273H33.8024V71.8956H37.0055V73H32.4849ZM43.5165 65.7273V73H42.199V67.0092H42.1564L40.4554 68.0959V66.8885L42.263 65.7273H43.5165ZM45.3631 73V72.0483L47.888 69.5732C48.1294 69.3293 48.3307 69.1127 48.4917 68.9233C48.6526 68.7339 48.7734 68.5504 48.8539 68.3729C48.9344 68.1953 48.9746 68.0059 48.9746 67.8047C48.9746 67.575 48.9225 67.3786 48.8184 67.2152C48.7142 67.0495 48.571 66.9216 48.3887 66.8317C48.2064 66.7417 47.9992 66.6967 47.7672 66.6967C47.5281 66.6967 47.3186 66.7464 47.1387 66.8459C46.9587 66.9429 46.8191 67.0814 46.7196 67.2614C46.6226 67.4413 46.574 67.6555 46.574 67.9041H45.3205C45.3205 67.4425 45.4258 67.0412 45.6365 66.7003C45.8472 66.3594 46.1373 66.0954 46.5066 65.9084C46.8783 65.7214 47.3044 65.6278 47.785 65.6278C48.2727 65.6278 48.7012 65.719 49.0705 65.9013C49.4398 66.0836 49.7263 66.3333 49.9299 66.6506C50.1358 66.9678 50.2388 67.33 50.2388 67.7372C50.2388 68.0095 50.1867 68.277 50.0826 68.5398C49.9784 68.8026 49.7949 69.0937 49.5321 69.4134C49.2717 69.733 48.906 70.12 48.4348 70.5746L47.1813 71.8494V71.8991H50.3489V73H45.3631ZM54.1841 73.0994C53.6728 73.0994 53.2182 73.0118 52.8205 72.8366C52.4251 72.6615 52.1126 72.4176 51.883 72.1051C51.6533 71.7926 51.5314 71.4316 51.5172 71.022H52.8525C52.8643 71.2185 52.9294 71.3902 53.0478 71.5369C53.1661 71.6813 53.3236 71.7938 53.5201 71.8743C53.7166 71.9548 53.9367 71.995 54.1806 71.995C54.441 71.995 54.6718 71.95 54.873 71.8601C55.0743 71.7678 55.2317 71.6399 55.3453 71.4766C55.459 71.3132 55.5146 71.125 55.5123 70.9119C55.5146 70.6918 55.4578 70.4976 55.3418 70.3295C55.2258 70.1615 55.0577 70.0301 54.8375 69.9354C54.6197 69.8407 54.3569 69.7933 54.0492 69.7933H53.4064V68.7777H54.0492C54.3025 68.7777 54.5239 68.7339 54.7132 68.6463C54.905 68.5587 55.0553 68.4356 55.1642 68.277C55.2731 68.116 55.3264 67.9302 55.324 67.7195C55.3264 67.5135 55.2802 67.3348 55.1855 67.1832C55.0932 67.0294 54.9618 66.9098 54.7914 66.8246C54.6233 66.7393 54.4256 66.6967 54.1983 66.6967C53.9758 66.6967 53.7698 66.737 53.5804 66.8175C53.391 66.898 53.2383 67.0128 53.1223 67.1619C53.0063 67.3087 52.9448 67.4839 52.9377 67.6875H51.6699C51.6794 67.2803 51.7966 66.9228 52.0215 66.6151C52.2488 66.3049 52.5518 66.0634 52.9306 65.8906C53.3094 65.7154 53.7343 65.6278 54.2054 65.6278C54.6908 65.6278 55.1122 65.719 55.4696 65.9013C55.8295 66.0812 56.1077 66.3239 56.3042 66.6293C56.5007 66.9347 56.5989 67.272 56.5989 67.6413C56.6013 68.0509 56.4805 68.3942 56.2367 68.6712C55.9952 68.9482 55.678 69.1293 55.285 69.2145V69.2713C55.7963 69.3423 56.1882 69.5317 56.4604 69.8395C56.735 70.1449 56.8712 70.5249 56.8688 70.9794C56.8688 71.3866 56.7528 71.7512 56.5208 72.0732C56.2911 72.3928 55.9739 72.6437 55.5691 72.826C55.1666 73.0083 54.705 73.0994 54.1841 73.0994ZM57.9563 71.6506V70.603L61.0423 65.7273H61.9158V67.2188H61.3832L59.3058 70.5107V70.5675H63.6133V71.6506H57.9563ZM61.4258 73V71.331L61.44 70.8622V65.7273H62.6829V73H61.4258ZM67.2763 73.0994C66.8028 73.0994 66.379 73.0107 66.005 72.8331C65.6309 72.6532 65.3338 72.407 65.1136 72.0945C64.8958 71.782 64.7798 71.4245 64.7656 71.022H66.044C66.0677 71.3203 66.1967 71.5642 66.4311 71.7536C66.6655 71.9406 66.9472 72.0341 67.2763 72.0341C67.5343 72.0341 67.764 71.9749 67.9652 71.8565C68.1664 71.7382 68.325 71.5736 68.4411 71.3629C68.5571 71.1522 68.6139 70.9119 68.6115 70.642C68.6139 70.3674 68.5559 70.1236 68.4375 69.9105C68.3191 69.6974 68.157 69.5305 67.951 69.4098C67.745 69.2867 67.5083 69.2251 67.2408 69.2251C67.023 69.2228 66.8087 69.263 66.598 69.3459C66.3873 69.4287 66.2204 69.5376 66.0973 69.6726L64.9077 69.4773L65.2876 65.7273H69.5064V66.8281H66.3778L66.1683 68.7564H66.2109C66.3459 68.5978 66.5365 68.4664 66.7827 68.3622C67.0289 68.2557 67.2988 68.2024 67.5923 68.2024C68.0327 68.2024 68.4257 68.3066 68.7713 68.5149C69.117 68.7209 69.3892 69.005 69.5881 69.3672C69.7869 69.7294 69.8864 70.1437 69.8864 70.6101C69.8864 71.0907 69.7751 71.5192 69.5526 71.8956C69.3324 72.2696 69.0258 72.5644 68.6328 72.7798C68.2422 72.9929 67.79 73.0994 67.2763 73.0994Z" fill="black"/>
<path d="M132.694 52.7273V60H131.522L128.095 55.0462H128.035V60H126.717V52.7273H127.896L131.32 57.6847H131.384V52.7273H132.694ZM136.487 60.1065C135.941 60.1065 135.468 59.9929 135.07 59.7656C134.675 59.536 134.371 59.2116 134.158 58.7926C133.945 58.3712 133.838 57.8752 133.838 57.3047C133.838 56.7436 133.945 56.2512 134.158 55.8274C134.373 55.4013 134.674 55.0698 135.06 54.8331C135.446 54.594 135.899 54.4744 136.42 54.4744C136.756 54.4744 137.073 54.5289 137.372 54.6378C137.672 54.7443 137.937 54.91 138.167 55.1349C138.399 55.3598 138.581 55.6463 138.714 55.9943C138.847 56.34 138.913 56.7519 138.913 57.2301V57.6243H134.442V56.7578H137.681C137.678 56.5116 137.625 56.2926 137.521 56.1009C137.417 55.9067 137.271 55.754 137.084 55.6428C136.899 55.5315 136.684 55.4759 136.438 55.4759C136.175 55.4759 135.944 55.5398 135.745 55.6676C135.546 55.7931 135.391 55.9588 135.28 56.1648C135.171 56.3684 135.115 56.5921 135.113 56.8359V57.5923C135.113 57.9096 135.171 58.1818 135.287 58.4091C135.403 58.634 135.565 58.8068 135.774 58.9276C135.982 59.0459 136.226 59.1051 136.505 59.1051C136.692 59.1051 136.861 59.0791 137.013 59.027C137.164 58.9725 137.296 58.8932 137.407 58.7891C137.518 58.6849 137.602 58.5559 137.659 58.402L138.86 58.5369C138.784 58.8542 138.639 59.1312 138.426 59.3679C138.216 59.6023 137.946 59.7846 137.617 59.9148C137.288 60.0426 136.911 60.1065 136.487 60.1065ZM141.57 60.1101C141.224 60.1101 140.913 60.0485 140.636 59.9254C140.361 59.8 140.144 59.6153 139.983 59.3714C139.824 59.1276 139.745 58.8269 139.745 58.4695C139.745 58.1617 139.801 57.9072 139.915 57.706C140.029 57.5047 140.184 57.3438 140.38 57.223C140.577 57.1023 140.798 57.0111 141.044 56.9496C141.293 56.8857 141.55 56.8395 141.815 56.8111C142.135 56.7779 142.394 56.7483 142.593 56.7223C142.792 56.6939 142.936 56.6513 143.026 56.5945C143.118 56.5353 143.164 56.4441 143.164 56.321V56.2997C143.164 56.0322 143.085 55.825 142.926 55.6783C142.768 55.5315 142.539 55.4581 142.241 55.4581C141.926 55.4581 141.676 55.5268 141.492 55.6641C141.31 55.8014 141.186 55.9635 141.123 56.1506L139.922 55.9801C140.017 55.6487 140.173 55.3717 140.391 55.1491C140.609 54.9242 140.875 54.7562 141.19 54.6449C141.505 54.5312 141.853 54.4744 142.234 54.4744C142.497 54.4744 142.758 54.5052 143.019 54.5668C143.279 54.6283 143.517 54.7301 143.733 54.8722C143.948 55.0118 144.121 55.2024 144.251 55.4439C144.384 55.6854 144.45 55.9872 144.45 56.3494V60H143.214V59.2507H143.172C143.093 59.4022 142.983 59.5443 142.841 59.6768C142.702 59.8071 142.525 59.9124 142.312 59.9929C142.101 60.071 141.854 60.1101 141.57 60.1101ZM141.904 59.1655C142.162 59.1655 142.386 59.1146 142.575 59.0128C142.764 58.9086 142.91 58.7713 143.012 58.6009C143.116 58.4304 143.168 58.2446 143.168 58.0433V57.4006C143.128 57.4337 143.059 57.4645 142.962 57.4929C142.867 57.5213 142.761 57.5462 142.642 57.5675C142.524 57.5888 142.407 57.6077 142.291 57.6243C142.175 57.6409 142.074 57.6551 141.989 57.6669C141.797 57.6929 141.626 57.7356 141.474 57.7947C141.323 57.8539 141.203 57.9368 141.115 58.0433C141.028 58.1475 140.984 58.2824 140.984 58.4482C140.984 58.6849 141.07 58.8636 141.243 58.9844C141.416 59.1051 141.636 59.1655 141.904 59.1655ZM145.743 60V54.5455H146.989V55.4545H147.046C147.145 55.1397 147.316 54.897 147.557 54.7266C147.801 54.5537 148.079 54.4673 148.392 54.4673C148.463 54.4673 148.542 54.4709 148.63 54.478C148.72 54.4827 148.794 54.491 148.853 54.5028V55.6854C148.799 55.6664 148.712 55.6499 148.594 55.6357C148.478 55.6191 148.366 55.6108 148.257 55.6108C148.022 55.6108 147.812 55.6617 147.625 55.7635C147.44 55.8629 147.294 56.0014 147.188 56.179C147.081 56.3565 147.028 56.5613 147.028 56.7933V60H145.743ZM151.898 60.1065C151.351 60.1065 150.878 59.9929 150.481 59.7656C150.085 59.536 149.781 59.2116 149.568 58.7926C149.355 58.3712 149.248 57.8752 149.248 57.3047C149.248 56.7436 149.355 56.2512 149.568 55.8274C149.783 55.4013 150.084 55.0698 150.47 54.8331C150.856 54.594 151.309 54.4744 151.83 54.4744C152.166 54.4744 152.483 54.5289 152.782 54.6378C153.082 54.7443 153.348 54.91 153.577 55.1349C153.809 55.3598 153.992 55.6463 154.124 55.9943C154.257 56.34 154.323 56.7519 154.323 57.2301V57.6243H149.852V56.7578H153.091C153.088 56.5116 153.035 56.2926 152.931 56.1009C152.827 55.9067 152.681 55.754 152.494 55.6428C152.309 55.5315 152.094 55.4759 151.848 55.4759C151.585 55.4759 151.354 55.5398 151.155 55.6676C150.956 55.7931 150.801 55.9588 150.69 56.1648C150.581 56.3684 150.526 56.5921 150.523 56.8359V57.5923C150.523 57.9096 150.581 58.1818 150.697 58.4091C150.813 58.634 150.975 58.8068 151.184 58.9276C151.392 59.0459 151.636 59.1051 151.915 59.1051C152.102 59.1051 152.272 59.0791 152.423 59.027C152.575 58.9725 152.706 58.8932 152.817 58.7891C152.929 58.6849 153.013 58.5559 153.069 58.402L154.27 58.5369C154.194 58.8542 154.05 59.1312 153.836 59.3679C153.626 59.6023 153.356 59.7846 153.027 59.9148C152.698 60.0426 152.321 60.1065 151.898 60.1065ZM159.722 55.9872L158.55 56.1151C158.517 55.9967 158.459 55.8854 158.376 55.7812C158.295 55.6771 158.186 55.593 158.049 55.5291C157.912 55.4652 157.744 55.4332 157.545 55.4332C157.277 55.4332 157.052 55.4912 156.87 55.6072C156.69 55.7232 156.601 55.8736 156.604 56.0582C156.601 56.2169 156.659 56.3459 156.778 56.4453C156.898 56.5447 157.097 56.6264 157.374 56.6903L158.305 56.8892C158.821 57.0005 159.204 57.1768 159.455 57.4183C159.709 57.6598 159.836 57.9759 159.839 58.3665C159.836 58.7098 159.736 59.0128 159.537 59.2756C159.34 59.536 159.067 59.7396 158.717 59.8864C158.366 60.0331 157.964 60.1065 157.509 60.1065C156.842 60.1065 156.304 59.9669 155.897 59.6875C155.49 59.4058 155.247 59.014 155.169 58.5121L156.423 58.3913C156.479 58.6375 156.6 58.8234 156.785 58.9489C156.969 59.0743 157.21 59.1371 157.506 59.1371C157.811 59.1371 158.056 59.0743 158.241 58.9489C158.428 58.8234 158.521 58.6683 158.521 58.4837C158.521 58.3274 158.461 58.1984 158.34 58.0966C158.222 57.9948 158.037 57.9167 157.786 57.8622L156.856 57.6669C156.333 57.558 155.946 57.3745 155.695 57.1165C155.444 56.8561 155.319 56.527 155.322 56.1293C155.319 55.7931 155.411 55.5019 155.595 55.2557C155.782 55.0071 156.041 54.8153 156.373 54.6804C156.707 54.5431 157.091 54.4744 157.527 54.4744C158.166 54.4744 158.669 54.6106 159.036 54.8828C159.406 55.1551 159.634 55.5232 159.722 55.9872ZM163.623 54.5455V55.5398H160.487V54.5455H163.623ZM161.261 53.2386H162.547V58.3594C162.547 58.5322 162.573 58.6648 162.625 58.7571C162.679 58.8471 162.75 58.9086 162.838 58.9418C162.925 58.9749 163.022 58.9915 163.129 58.9915C163.209 58.9915 163.283 58.9856 163.349 58.9737C163.418 58.9619 163.47 58.9512 163.505 58.9418L163.722 59.9467C163.653 59.9704 163.555 59.9964 163.427 60.0249C163.302 60.0533 163.148 60.0698 162.966 60.0746C162.644 60.084 162.354 60.0355 162.096 59.929C161.837 59.8201 161.633 59.652 161.481 59.4247C161.332 59.1974 161.259 58.9134 161.261 58.5724V53.2386ZM167.235 60V52.7273H171.965V53.8317H168.552V55.8061H171.72V56.9105H168.552V58.8956H171.993V60H167.235ZM174.303 54.5455L175.404 56.5589L176.523 54.5455H177.883L176.239 57.2727L177.911 60H176.558L175.404 58.0362L174.261 60H172.897L174.559 57.2727L172.94 54.5455H174.303ZM178.877 62.0455V54.5455H180.142V55.4474H180.216C180.282 55.3149 180.376 55.174 180.497 55.0249C180.617 54.8733 180.781 54.7443 180.987 54.6378C181.193 54.5289 181.455 54.4744 181.775 54.4744C182.196 54.4744 182.576 54.5821 182.915 54.7976C183.256 55.0107 183.526 55.3267 183.725 55.7457C183.926 56.1624 184.026 56.6738 184.026 57.2798C184.026 57.8788 183.928 58.3878 183.732 58.8068C183.535 59.2259 183.268 59.5455 182.929 59.7656C182.591 59.9858 182.207 60.0959 181.779 60.0959C181.466 60.0959 181.207 60.0438 181.001 59.9396C180.795 59.8355 180.629 59.71 180.504 59.5632C180.381 59.4141 180.285 59.2732 180.216 59.1406H180.163V62.0455H178.877ZM180.138 57.2727C180.138 57.6255 180.188 57.9344 180.287 58.1996C180.389 58.4647 180.535 58.6719 180.724 58.821C180.916 58.9678 181.148 59.0412 181.42 59.0412C181.704 59.0412 181.942 58.9654 182.134 58.8139C182.325 58.66 182.47 58.4505 182.567 58.1854C182.666 57.9179 182.716 57.6136 182.716 57.2727C182.716 56.9342 182.668 56.6335 182.57 56.3707C182.473 56.108 182.329 55.902 182.137 55.7528C181.945 55.6037 181.706 55.5291 181.42 55.5291C181.145 55.5291 180.912 55.6013 180.72 55.7457C180.529 55.8902 180.383 56.0926 180.284 56.353C180.186 56.6134 180.138 56.92 180.138 57.2727ZM185.127 60V54.5455H186.413V60H185.127ZM185.774 53.7713C185.57 53.7713 185.395 53.7038 185.248 53.5689C185.101 53.4316 185.028 53.267 185.028 53.0753C185.028 52.8812 185.101 52.7166 185.248 52.5817C185.395 52.4444 185.57 52.3757 185.774 52.3757C185.98 52.3757 186.155 52.4444 186.299 52.5817C186.446 52.7166 186.519 52.8812 186.519 53.0753C186.519 53.267 186.446 53.4316 186.299 53.5689C186.155 53.7038 185.98 53.7713 185.774 53.7713ZM187.735 60V54.5455H188.981V55.4545H189.038C189.137 55.1397 189.308 54.897 189.549 54.7266C189.793 54.5537 190.071 54.4673 190.384 54.4673C190.455 54.4673 190.534 54.4709 190.622 54.478C190.712 54.4827 190.786 54.491 190.846 54.5028V55.6854C190.791 55.6664 190.705 55.6499 190.586 55.6357C190.47 55.6191 190.358 55.6108 190.249 55.6108C190.015 55.6108 189.804 55.6617 189.617 55.7635C189.432 55.8629 189.287 56.0014 189.18 56.179C189.074 56.3565 189.02 56.5613 189.02 56.7933V60H187.735ZM192.665 62.0455C192.489 62.0455 192.327 62.0313 192.178 62.0028C192.031 61.9768 191.914 61.946 191.827 61.9105L192.125 60.9091C192.312 60.9635 192.479 60.9896 192.626 60.9872C192.772 60.9848 192.901 60.9387 193.013 60.8487C193.126 60.7611 193.222 60.6143 193.3 60.4084L193.41 60.1136L191.432 54.5455H192.796L194.053 58.6648H194.11L195.371 54.5455H196.738L194.554 60.6605C194.452 60.9493 194.317 61.1967 194.149 61.4027C193.981 61.611 193.775 61.7696 193.531 61.8786C193.29 61.9898 193.001 62.0455 192.665 62.0455Z" fill="black"/>
<path opacity="0.7" d="M136.685 73.1023C136.241 73.1023 135.853 72.9968 135.518 72.7859C135.186 72.5749 134.926 72.2798 134.738 71.9006C134.553 71.5213 134.46 71.0781 134.46 70.571C134.46 70.0597 134.553 69.6133 134.738 69.2319C134.926 68.8505 135.186 68.5543 135.518 68.3434C135.853 68.1325 136.241 68.027 136.685 68.027C137.128 68.027 137.516 68.1325 137.848 68.3434C138.183 68.5543 138.442 68.8505 138.628 69.2319C138.815 69.6133 138.909 70.0597 138.909 70.571C138.909 71.0781 138.815 71.5213 138.628 71.9006C138.442 72.2798 138.183 72.5749 137.848 72.7859C137.516 72.9968 137.128 73.1023 136.685 73.1023ZM136.685 72.4247C137.021 72.4247 137.298 72.3384 137.516 72.1658C137.733 71.9933 137.894 71.7663 137.998 71.4851C138.103 71.2038 138.155 70.8991 138.155 70.571C138.155 70.2429 138.103 69.9371 137.998 69.6538C137.894 69.3704 137.733 69.1413 137.516 68.9666C137.298 68.7919 137.021 68.7045 136.685 68.7045C136.348 68.7045 136.071 68.7919 135.854 68.9666C135.636 69.1413 135.475 69.3704 135.371 69.6538C135.267 69.9371 135.214 70.2429 135.214 70.571C135.214 70.8991 135.267 71.2038 135.371 71.4851C135.475 71.7663 135.636 71.9933 135.854 72.1658C136.071 72.3384 136.348 72.4247 136.685 72.4247ZM140.815 70.0469V73H140.06V68.0909H140.789V68.858H140.853C140.968 68.6087 141.143 68.4084 141.377 68.2571C141.612 68.1037 141.914 68.027 142.285 68.027C142.617 68.027 142.908 68.0952 143.157 68.2315C143.407 68.3658 143.601 68.5703 143.739 68.8452C143.878 69.1179 143.947 69.4631 143.947 69.8807V73H143.193V69.9318C143.193 69.5462 143.092 69.2457 142.892 69.0305C142.692 68.8132 142.417 68.7045 142.068 68.7045C141.827 68.7045 141.612 68.7567 141.422 68.8612C141.234 68.9656 141.086 69.1179 140.978 69.3182C140.869 69.5185 140.815 69.7614 140.815 70.0469ZM145.635 74.8409C145.507 74.8409 145.393 74.8303 145.293 74.8089C145.193 74.7898 145.124 74.7706 145.085 74.7514L145.277 74.0866C145.46 74.1335 145.622 74.1506 145.763 74.1378C145.904 74.125 146.028 74.0621 146.137 73.9492C146.248 73.8384 146.349 73.6584 146.441 73.4091L146.581 73.0256L144.766 68.0909H145.584L146.939 72.0028H146.99L148.345 68.0909H149.164L147.08 73.7159C146.986 73.9695 146.87 74.1793 146.731 74.3455C146.593 74.5138 146.432 74.6385 146.249 74.7195C146.068 74.8004 145.863 74.8409 145.635 74.8409ZM154.921 73.0895C154.469 73.0895 154.067 73.0064 153.713 72.8402C153.362 72.674 153.082 72.445 152.876 72.1531C152.669 71.8612 152.561 71.5266 152.553 71.1495H153.895C153.91 71.4031 154.017 71.6087 154.215 71.7663C154.413 71.924 154.648 72.0028 154.921 72.0028C155.138 72.0028 155.33 71.9549 155.496 71.859C155.665 71.761 155.796 71.6257 155.89 71.4531C155.985 71.2784 156.033 71.0781 156.033 70.8523C156.033 70.6222 155.984 70.4197 155.886 70.245C155.79 70.0703 155.657 69.9339 155.487 69.8359C155.316 69.7379 155.121 69.6879 154.902 69.6857C154.71 69.6857 154.524 69.7251 154.343 69.804C154.164 69.8828 154.024 69.9904 153.924 70.1268L152.694 69.9062L153.004 66.4545H157.005V67.5859H154.145L153.975 69.2255H154.013C154.129 69.0636 154.302 68.9293 154.534 68.8228C154.767 68.7163 155.027 68.663 155.314 68.663C155.708 68.663 156.06 68.7557 156.369 68.9411C156.678 69.1264 156.922 69.381 157.101 69.7049C157.28 70.0266 157.368 70.3974 157.366 70.8171C157.368 71.2582 157.266 71.6502 157.059 71.9933C156.855 72.3342 156.568 72.6026 156.2 72.7987C155.833 72.9925 155.407 73.0895 154.921 73.0895ZM162.876 73.1023C162.467 73.1023 162.106 72.9989 161.793 72.7923C161.479 72.5835 161.234 72.2894 161.058 71.9102C160.881 71.5288 160.792 71.0781 160.792 70.5582C160.792 70.0426 160.881 69.5952 161.058 69.2159C161.234 68.8366 161.48 68.5437 161.796 68.337C162.111 68.1303 162.475 68.027 162.889 68.027C163.208 68.027 163.461 68.0803 163.646 68.1868C163.834 68.2912 163.977 68.4105 164.075 68.5447C164.175 68.6768 164.252 68.7855 164.308 68.8707H164.372V66.4545H165.126V73H164.397V72.2457H164.308C164.252 72.3352 164.174 72.4482 164.071 72.5845C163.969 72.7187 163.823 72.8391 163.634 72.9457C163.444 73.0501 163.191 73.1023 162.876 73.1023ZM162.978 72.4247C163.281 72.4247 163.537 72.3459 163.745 72.1882C163.954 72.0284 164.113 71.8079 164.222 71.5266C164.33 71.2433 164.385 70.9162 164.385 70.5455C164.385 70.179 164.331 69.8583 164.225 69.5835C164.118 69.3065 163.961 69.0913 163.752 68.9379C163.543 68.7823 163.285 68.7045 162.978 68.7045C162.659 68.7045 162.392 68.7866 162.179 68.9506C161.968 69.1126 161.81 69.3331 161.703 69.6122C161.599 69.8892 161.547 70.2003 161.547 70.5455C161.547 70.8949 161.6 71.2124 161.706 71.4979C161.815 71.7812 161.975 72.0071 162.186 72.1754C162.399 72.3416 162.663 72.4247 162.978 72.4247ZM168.057 73.1151C167.746 73.1151 167.463 73.0565 167.21 72.9393C166.956 72.82 166.755 72.6484 166.606 72.4247C166.457 72.1989 166.382 71.9261 166.382 71.6065C166.382 71.3253 166.438 71.0973 166.548 70.9226C166.659 70.7457 166.807 70.6072 166.993 70.5071C167.178 70.407 167.382 70.3324 167.606 70.2834C167.832 70.2322 168.059 70.1918 168.287 70.1619C168.585 70.1236 168.827 70.0948 169.012 70.0756C169.2 70.0543 169.336 70.0192 169.422 69.9702C169.509 69.9212 169.553 69.8359 169.553 69.7145V69.6889C169.553 69.3736 169.466 69.1286 169.294 68.9538C169.123 68.7791 168.864 68.6918 168.517 68.6918C168.157 68.6918 167.875 68.7706 167.67 68.9283C167.466 69.0859 167.322 69.2543 167.239 69.4332L166.523 69.1776C166.651 68.8793 166.821 68.647 167.034 68.4808C167.249 68.3125 167.484 68.1953 167.737 68.1293C167.993 68.0611 168.244 68.027 168.491 68.027C168.649 68.027 168.83 68.0462 169.035 68.0845C169.241 68.1207 169.441 68.1964 169.632 68.3114C169.826 68.4265 169.987 68.6001 170.115 68.8324C170.243 69.0646 170.307 69.3757 170.307 69.7656V73H169.553V72.3352H169.514C169.463 72.4418 169.378 72.5558 169.259 72.6772C169.139 72.7987 168.98 72.902 168.782 72.9872C168.584 73.0724 168.342 73.1151 168.057 73.1151ZM168.172 72.4375C168.47 72.4375 168.722 72.3789 168.926 72.2617C169.133 72.1445 169.288 71.9933 169.393 71.8079C169.499 71.6225 169.553 71.4276 169.553 71.223V70.5327C169.521 70.571 169.45 70.6062 169.342 70.6381C169.235 70.668 169.112 70.6946 168.971 70.718C168.832 70.7393 168.697 70.7585 168.565 70.7756C168.435 70.7905 168.33 70.8033 168.249 70.8139C168.053 70.8395 167.869 70.881 167.699 70.9386C167.531 70.994 167.394 71.0781 167.29 71.1911C167.188 71.3018 167.136 71.4531 167.136 71.6449C167.136 71.907 167.233 72.1051 167.427 72.2393C167.623 72.3714 167.871 72.4375 168.172 72.4375ZM171.994 74.8409C171.866 74.8409 171.752 74.8303 171.652 74.8089C171.551 74.7898 171.482 74.7706 171.444 74.7514L171.636 74.0866C171.819 74.1335 171.981 74.1506 172.121 74.1378C172.262 74.125 172.387 74.0621 172.495 73.9492C172.606 73.8384 172.707 73.6584 172.799 73.4091L172.94 73.0256L171.124 68.0909H171.942L173.297 72.0028H173.349L174.704 68.0909H175.522L173.438 73.7159C173.344 73.9695 173.228 74.1793 173.09 74.3455C172.951 74.5138 172.79 74.6385 172.607 74.7195C172.426 74.8004 172.222 74.8409 171.994 74.8409ZM179.995 69.1903L179.317 69.3821C179.275 69.2692 179.212 69.1594 179.129 69.0529C179.048 68.9442 178.937 68.8548 178.796 68.7844C178.656 68.7141 178.476 68.679 178.256 68.679C177.956 68.679 177.705 68.7482 177.505 68.8867C177.307 69.0231 177.208 69.1967 177.208 69.4077C177.208 69.5952 177.276 69.7433 177.412 69.8519C177.549 69.9606 177.762 70.0511 178.052 70.1236L178.78 70.3026C179.219 70.4091 179.546 70.5721 179.761 70.7915C179.977 71.0089 180.084 71.2891 180.084 71.6321C180.084 71.9134 180.003 72.1648 179.841 72.3864C179.682 72.608 179.458 72.7827 179.17 72.9105C178.883 73.0384 178.548 73.1023 178.167 73.1023C177.666 73.1023 177.252 72.9936 176.923 72.7763C176.595 72.5589 176.388 72.2415 176.3 71.8239L177.016 71.6449C177.084 71.9091 177.213 72.1072 177.403 72.2393C177.595 72.3714 177.845 72.4375 178.154 72.4375C178.505 72.4375 178.785 72.3629 178.991 72.2138C179.2 72.0625 179.304 71.8814 179.304 71.6705C179.304 71.5 179.245 71.3572 179.125 71.2422C179.006 71.125 178.823 71.0376 178.576 70.9801L177.758 70.7884C177.308 70.6818 176.978 70.5167 176.767 70.293C176.558 70.0671 176.454 69.7848 176.454 69.446C176.454 69.169 176.531 68.924 176.687 68.7109C176.845 68.4979 177.059 68.3306 177.329 68.2092C177.602 68.0877 177.911 68.027 178.256 68.027C178.742 68.027 179.123 68.1335 179.4 68.3466C179.679 68.5597 179.878 68.8409 179.995 69.1903ZM184.505 66.4545V73H183.751V66.4545H184.505ZM187.945 73.1023C187.472 73.1023 187.064 72.9979 186.721 72.7891C186.38 72.5781 186.117 72.2841 185.931 71.907C185.748 71.5277 185.657 71.0866 185.657 70.5838C185.657 70.081 185.748 69.6378 185.931 69.2543C186.117 68.8686 186.375 68.5682 186.705 68.353C187.037 68.1357 187.425 68.027 187.868 68.027C188.124 68.027 188.376 68.0696 188.626 68.1548C188.875 68.2401 189.102 68.3786 189.306 68.5703C189.511 68.7599 189.674 69.0114 189.795 69.3246C189.917 69.6378 189.978 70.0234 189.978 70.4815V70.8011H186.193V70.1491H189.21C189.21 69.8722 189.155 69.625 189.044 69.4077C188.936 69.1903 188.78 69.0188 188.578 68.8931C188.377 68.7674 188.141 68.7045 187.868 68.7045C187.568 68.7045 187.308 68.7791 187.088 68.9283C186.871 69.0753 186.704 69.267 186.587 69.5036C186.469 69.7401 186.411 69.9936 186.411 70.2642V70.6989C186.411 71.0696 186.475 71.3839 186.603 71.6417C186.733 71.8974 186.913 72.0923 187.143 72.2266C187.373 72.3587 187.64 72.4247 187.945 72.4247C188.143 72.4247 188.322 72.397 188.482 72.3416C188.644 72.2841 188.783 72.1989 188.9 72.0859C189.018 71.9709 189.108 71.8281 189.172 71.6577L189.901 71.8622C189.824 72.1094 189.695 72.3267 189.514 72.5142C189.333 72.6996 189.109 72.8445 188.843 72.9489C188.577 73.0511 188.277 73.1023 187.945 73.1023ZM193.311 68.0909V68.7301H190.665V68.0909H193.311ZM191.457 73V67.4134C191.457 67.1321 191.523 66.8977 191.655 66.7102C191.788 66.5227 191.959 66.3821 192.17 66.2884C192.381 66.1946 192.604 66.1477 192.838 66.1477C193.023 66.1477 193.175 66.1626 193.292 66.1925C193.409 66.2223 193.496 66.25 193.554 66.2756L193.337 66.9276C193.298 66.9148 193.245 66.8988 193.177 66.8796C193.111 66.8604 193.023 66.8509 192.915 66.8509C192.665 66.8509 192.485 66.9137 192.375 67.0394C192.266 67.1651 192.212 67.3494 192.212 67.5923V73H191.457ZM196.503 68.0909V68.7301H193.959V68.0909H196.503ZM194.7 66.9148H195.455V71.5938C195.455 71.8068 195.486 71.9666 195.547 72.0732C195.611 72.1776 195.692 72.2479 195.79 72.2841C195.89 72.3182 195.996 72.3352 196.107 72.3352C196.19 72.3352 196.258 72.331 196.311 72.3224C196.365 72.3118 196.407 72.3033 196.439 72.2969L196.593 72.9744C196.541 72.9936 196.47 73.0128 196.378 73.032C196.287 73.0533 196.171 73.0639 196.03 73.0639C195.817 73.0639 195.608 73.0181 195.404 72.9265C195.201 72.8349 195.033 72.6953 194.899 72.5078C194.767 72.3203 194.7 72.0838 194.7 71.7983V66.9148Z" fill="black"/>
<path d="M136.7 117V116.205L139.161 113.655C139.423 113.378 139.64 113.135 139.81 112.927C139.983 112.716 140.112 112.516 140.197 112.327C140.283 112.137 140.325 111.936 140.325 111.723C140.325 111.482 140.268 111.273 140.155 111.098C140.041 110.92 139.886 110.784 139.69 110.69C139.493 110.593 139.272 110.544 139.026 110.544C138.765 110.544 138.538 110.597 138.344 110.704C138.15 110.81 138 110.961 137.896 111.155C137.792 111.349 137.74 111.576 137.74 111.837H136.692C136.692 111.394 136.794 111.007 136.998 110.675C137.201 110.344 137.481 110.087 137.836 109.905C138.191 109.72 138.595 109.628 139.047 109.628C139.504 109.628 139.906 109.719 140.254 109.901C140.605 110.081 140.878 110.327 141.075 110.64C141.271 110.95 141.369 111.3 141.369 111.691C141.369 111.961 141.318 112.225 141.217 112.483C141.117 112.741 140.943 113.029 140.695 113.346C140.446 113.661 140.1 114.043 139.658 114.493L138.212 116.006V116.059H141.487V117H136.7ZM142.523 115.58V114.692L145.666 109.727H146.366V111.034H145.922L143.674 114.592V114.649H147.982V115.58H142.523ZM145.972 117V115.31L145.979 114.905V109.727H147.019V117H145.972ZM154.792 109.727H155.885V114.884C155.885 115.35 155.793 115.749 155.608 116.08C155.426 116.412 155.169 116.665 154.838 116.84C154.506 117.013 154.118 117.099 153.673 117.099C153.264 117.099 152.895 117.025 152.569 116.876C152.244 116.727 151.988 116.51 151.798 116.226C151.611 115.939 151.518 115.591 151.518 115.182H152.608C152.608 115.383 152.654 115.557 152.746 115.704C152.841 115.851 152.97 115.965 153.133 116.048C153.299 116.129 153.488 116.169 153.702 116.169C153.934 116.169 154.13 116.121 154.291 116.023C154.454 115.924 154.579 115.778 154.664 115.587C154.749 115.395 154.792 115.161 154.792 114.884V109.727ZM158.985 117.121C158.639 117.121 158.327 117.057 158.047 116.929C157.768 116.799 157.547 116.611 157.383 116.364C157.222 116.118 157.142 115.816 157.142 115.459C157.142 115.151 157.201 114.898 157.319 114.699C157.438 114.5 157.597 114.343 157.799 114.227C158 114.111 158.225 114.023 158.473 113.964C158.722 113.905 158.975 113.86 159.233 113.829C159.56 113.791 159.825 113.76 160.029 113.737C160.232 113.71 160.38 113.669 160.473 113.612C160.565 113.555 160.611 113.463 160.611 113.335V113.31C160.611 113 160.524 112.76 160.348 112.589C160.176 112.419 159.917 112.334 159.574 112.334C159.217 112.334 158.935 112.413 158.729 112.572C158.525 112.728 158.385 112.902 158.306 113.094L157.309 112.866C157.427 112.535 157.6 112.268 157.827 112.064C158.057 111.858 158.321 111.709 158.619 111.616C158.917 111.522 159.231 111.474 159.56 111.474C159.778 111.474 160.009 111.5 160.252 111.553C160.499 111.602 160.728 111.695 160.941 111.83C161.157 111.964 161.333 112.157 161.471 112.408C161.608 112.657 161.676 112.98 161.676 113.378V117H160.64V116.254H160.597C160.528 116.392 160.425 116.527 160.288 116.659C160.151 116.792 159.974 116.902 159.759 116.989C159.543 117.077 159.285 117.121 158.985 117.121ZM159.216 116.268C159.509 116.268 159.76 116.21 159.968 116.094C160.179 115.978 160.339 115.827 160.448 115.64C160.559 115.451 160.615 115.248 160.615 115.033V114.33C160.577 114.367 160.503 114.403 160.395 114.436C160.288 114.467 160.166 114.494 160.029 114.518C159.891 114.539 159.758 114.559 159.627 114.578C159.497 114.595 159.388 114.609 159.301 114.621C159.095 114.647 158.907 114.691 158.736 114.752C158.568 114.814 158.433 114.902 158.331 115.018C158.232 115.132 158.182 115.284 158.182 115.473C158.182 115.736 158.279 115.935 158.473 116.07C158.667 116.202 158.915 116.268 159.216 116.268ZM164.153 113.761V117H163.091V111.545H164.11V112.433H164.177C164.303 112.144 164.499 111.912 164.767 111.737C165.037 111.562 165.376 111.474 165.786 111.474C166.158 111.474 166.483 111.553 166.763 111.709C167.042 111.863 167.259 112.092 167.412 112.398C167.566 112.703 167.643 113.081 167.643 113.531V117H166.581V113.658C166.581 113.263 166.479 112.954 166.273 112.732C166.067 112.507 165.784 112.394 165.424 112.394C165.178 112.394 164.959 112.447 164.767 112.554C164.577 112.661 164.427 112.817 164.316 113.023C164.207 113.226 164.153 113.473 164.153 113.761ZM171.7 117V116.205L174.161 113.655C174.423 113.378 174.64 113.135 174.81 112.927C174.983 112.716 175.112 112.516 175.197 112.327C175.283 112.137 175.325 111.936 175.325 111.723C175.325 111.482 175.268 111.273 175.155 111.098C175.041 110.92 174.886 110.784 174.69 110.69C174.493 110.593 174.272 110.544 174.026 110.544C173.765 110.544 173.538 110.597 173.344 110.704C173.15 110.81 173 110.961 172.896 111.155C172.792 111.349 172.74 111.576 172.74 111.837H171.692C171.692 111.394 171.794 111.007 171.998 110.675C172.201 110.344 172.481 110.087 172.836 109.905C173.191 109.72 173.595 109.628 174.047 109.628C174.504 109.628 174.906 109.719 175.254 109.901C175.605 110.081 175.878 110.327 176.075 110.64C176.271 110.95 176.369 111.3 176.369 111.691C176.369 111.961 176.318 112.225 176.217 112.483C176.117 112.741 175.943 113.029 175.695 113.346C175.446 113.661 175.1 114.043 174.658 114.493L173.212 116.006V116.059H176.487V117H171.7ZM180.364 117.121C179.803 117.118 179.324 116.97 178.926 116.677C178.528 116.383 178.224 115.956 178.013 115.395C177.803 114.834 177.697 114.158 177.697 113.367C177.697 112.579 177.803 111.905 178.013 111.347C178.227 110.788 178.532 110.362 178.93 110.068C179.33 109.775 179.808 109.628 180.364 109.628C180.921 109.628 181.398 109.776 181.795 110.072C182.193 110.365 182.497 110.791 182.708 111.35C182.921 111.906 183.028 112.579 183.028 113.367C183.028 114.16 182.922 114.837 182.712 115.398C182.501 115.957 182.197 116.384 181.799 116.68C181.401 116.974 180.923 117.121 180.364 117.121ZM180.364 116.173C180.857 116.173 181.241 115.932 181.518 115.452C181.798 114.971 181.938 114.276 181.938 113.367C181.938 112.763 181.874 112.253 181.746 111.837C181.62 111.418 181.439 111.1 181.202 110.885C180.968 110.667 180.689 110.558 180.364 110.558C179.874 110.558 179.49 110.8 179.21 111.283C178.931 111.766 178.79 112.46 178.788 113.367C178.788 113.973 178.85 114.486 178.976 114.905C179.104 115.321 179.285 115.638 179.519 115.853C179.754 116.066 180.035 116.173 180.364 116.173ZM184.287 117V116.205L186.748 113.655C187.011 113.378 187.228 113.135 187.398 112.927C187.571 112.716 187.7 112.516 187.785 112.327C187.871 112.137 187.913 111.936 187.913 111.723C187.913 111.482 187.856 111.273 187.743 111.098C187.629 110.92 187.474 110.784 187.278 110.69C187.081 110.593 186.86 110.544 186.613 110.544C186.353 110.544 186.126 110.597 185.932 110.704C185.738 110.81 185.588 110.961 185.484 111.155C185.38 111.349 185.328 111.576 185.328 111.837H184.28C184.28 111.394 184.382 111.007 184.586 110.675C184.789 110.344 185.069 110.087 185.424 109.905C185.779 109.72 186.183 109.628 186.635 109.628C187.092 109.628 187.494 109.719 187.842 109.901C188.193 110.081 188.466 110.327 188.662 110.64C188.859 110.95 188.957 111.3 188.957 111.691C188.957 111.961 188.906 112.225 188.805 112.483C188.705 112.741 188.531 113.029 188.282 113.346C188.034 113.661 187.688 114.043 187.246 114.493L185.8 116.006V116.059H189.074V117H184.287ZM190.111 115.58V114.692L193.254 109.727H193.954V111.034H193.51L191.262 114.592V114.649H195.569V115.58H190.111ZM193.559 117V115.31L193.567 114.905V109.727H194.607V117H193.559Z" fill="black"/>
<path opacity="0.7" d="M148.793 102V95.4545H152.743V96.1577H149.585V98.3693H152.538V99.0724H149.585V101.297H152.794V102H148.793ZM154.632 97.0909L155.808 99.098L156.984 97.0909H157.853L156.268 99.5455L157.853 102H156.984L155.808 100.095L154.632 102H153.762L155.322 99.5455L153.762 97.0909H154.632ZM158.93 103.841V97.0909H159.658V97.8707H159.748C159.803 97.7855 159.88 97.6768 159.978 97.5447C160.078 97.4105 160.221 97.2912 160.406 97.1868C160.594 97.0803 160.847 97.027 161.167 97.027C161.58 97.027 161.945 97.1303 162.26 97.337C162.575 97.5437 162.821 97.8366 162.998 98.2159C163.175 98.5952 163.263 99.0426 163.263 99.5582C163.263 100.078 163.175 100.529 162.998 100.91C162.821 101.289 162.576 101.583 162.263 101.792C161.95 101.999 161.589 102.102 161.18 102.102C160.864 102.102 160.612 102.05 160.422 101.946C160.233 101.839 160.087 101.719 159.984 101.585C159.882 101.448 159.803 101.335 159.748 101.246H159.684V103.841H158.93ZM159.671 99.5455C159.671 99.9162 159.725 100.243 159.834 100.527C159.943 100.808 160.101 101.028 160.31 101.188C160.519 101.346 160.775 101.425 161.077 101.425C161.393 101.425 161.656 101.342 161.867 101.175C162.08 101.007 162.24 100.781 162.346 100.498C162.455 100.212 162.509 99.8949 162.509 99.5455C162.509 99.2003 162.456 98.8892 162.349 98.6122C162.245 98.3331 162.086 98.1126 161.873 97.9506C161.662 97.7866 161.397 97.7045 161.077 97.7045C160.771 97.7045 160.513 97.7823 160.304 97.9379C160.095 98.0913 159.937 98.3065 159.831 98.5835C159.724 98.8583 159.671 99.179 159.671 99.5455ZM164.414 102V97.0909H165.168V102H164.414ZM164.797 96.2727C164.65 96.2727 164.524 96.2227 164.417 96.1225C164.313 96.0224 164.261 95.902 164.261 95.7614C164.261 95.6207 164.313 95.5004 164.417 95.4002C164.524 95.3001 164.65 95.25 164.797 95.25C164.945 95.25 165.07 95.3001 165.175 95.4002C165.281 95.5004 165.334 95.6207 165.334 95.7614C165.334 95.902 165.281 96.0224 165.175 96.1225C165.07 96.2227 164.945 96.2727 164.797 96.2727ZM166.55 102V97.0909H167.278V97.8324H167.33C167.419 97.5895 167.581 97.3924 167.815 97.2411C168.05 97.0898 168.314 97.0142 168.608 97.0142C168.663 97.0142 168.733 97.0153 168.816 97.0174C168.899 97.0195 168.962 97.0227 169.004 97.027V97.794C168.979 97.7876 168.92 97.7781 168.828 97.7653C168.739 97.7504 168.644 97.7429 168.544 97.7429C168.305 97.7429 168.092 97.793 167.905 97.8931C167.719 97.9911 167.572 98.1275 167.464 98.3022C167.357 98.4748 167.304 98.6719 167.304 98.8935V102H166.55ZM170.534 103.841C170.406 103.841 170.292 103.83 170.192 103.809C170.091 103.79 170.022 103.771 169.984 103.751L170.176 103.087C170.359 103.134 170.521 103.151 170.661 103.138C170.802 103.125 170.927 103.062 171.035 102.949C171.146 102.838 171.247 102.658 171.339 102.409L171.48 102.026L169.664 97.0909H170.482L171.838 101.003H171.889L173.244 97.0909H174.062L171.978 102.716C171.884 102.969 171.768 103.179 171.63 103.346C171.491 103.514 171.33 103.638 171.147 103.719C170.966 103.8 170.762 103.841 170.534 103.841ZM179.711 102H177.691V95.4545H179.8C180.435 95.4545 180.979 95.5856 181.43 95.8477C181.882 96.1076 182.228 96.4815 182.469 96.9695C182.71 97.4553 182.83 98.0369 182.83 98.7145C182.83 99.3963 182.709 99.9833 182.466 100.475C182.223 100.966 181.869 101.343 181.405 101.607C180.94 101.869 180.376 102 179.711 102ZM178.484 101.297H179.66C180.201 101.297 180.65 101.192 181.005 100.984C181.361 100.775 181.626 100.478 181.801 100.092C181.976 99.7063 182.063 99.2472 182.063 98.7145C182.063 98.1861 181.977 97.7312 181.804 97.3498C181.632 96.9663 181.374 96.6722 181.031 96.4677C180.688 96.261 180.261 96.1577 179.749 96.1577H178.484V101.297ZM185.502 102.115C185.191 102.115 184.909 102.056 184.655 101.939C184.402 101.82 184.2 101.648 184.051 101.425C183.902 101.199 183.827 100.926 183.827 100.607C183.827 100.325 183.883 100.097 183.994 99.9226C184.104 99.7457 184.252 99.6072 184.438 99.5071C184.623 99.407 184.828 99.3324 185.051 99.2834C185.277 99.2322 185.504 99.1918 185.732 99.1619C186.031 99.1236 186.272 99.0948 186.458 99.0756C186.645 99.0543 186.782 99.0192 186.867 98.9702C186.954 98.9212 186.998 98.8359 186.998 98.7145V98.6889C186.998 98.3736 186.912 98.1286 186.739 97.9538C186.569 97.7791 186.31 97.6918 185.962 97.6918C185.602 97.6918 185.32 97.7706 185.115 97.9283C184.911 98.0859 184.767 98.2543 184.684 98.4332L183.968 98.1776C184.096 97.8793 184.266 97.647 184.479 97.4808C184.695 97.3125 184.929 97.1953 185.183 97.1293C185.438 97.0611 185.69 97.027 185.937 97.027C186.094 97.027 186.276 97.0462 186.48 97.0845C186.687 97.1207 186.886 97.1964 187.078 97.3114C187.272 97.4265 187.433 97.6001 187.56 97.8324C187.688 98.0646 187.752 98.3757 187.752 98.7656V102H186.998V101.335H186.96C186.908 101.442 186.823 101.556 186.704 101.677C186.585 101.799 186.426 101.902 186.228 101.987C186.029 102.072 185.788 102.115 185.502 102.115ZM185.617 101.438C185.915 101.438 186.167 101.379 186.371 101.262C186.578 101.145 186.734 100.993 186.838 100.808C186.945 100.623 186.998 100.428 186.998 100.223V99.5327C186.966 99.571 186.896 99.6062 186.787 99.6381C186.68 99.668 186.557 99.6946 186.416 99.718C186.278 99.7393 186.142 99.7585 186.01 99.7756C185.88 99.7905 185.775 99.8033 185.694 99.8139C185.498 99.8395 185.315 99.881 185.144 99.9386C184.976 99.994 184.839 100.078 184.735 100.191C184.633 100.302 184.582 100.453 184.582 100.645C184.582 100.907 184.679 101.105 184.873 101.239C185.069 101.371 185.317 101.438 185.617 101.438ZM191.264 97.0909V97.7301H188.72V97.0909H191.264ZM189.461 95.9148H190.215V100.594C190.215 100.807 190.246 100.967 190.308 101.073C190.372 101.178 190.453 101.248 190.551 101.284C190.651 101.318 190.757 101.335 190.867 101.335C190.951 101.335 191.019 101.331 191.072 101.322C191.125 101.312 191.168 101.303 191.2 101.297L191.353 101.974C191.302 101.994 191.231 102.013 191.139 102.032C191.047 102.053 190.931 102.064 190.791 102.064C190.578 102.064 190.369 102.018 190.164 101.926C189.962 101.835 189.794 101.695 189.659 101.508C189.527 101.32 189.461 101.084 189.461 100.798V95.9148ZM194.404 102.102C193.931 102.102 193.523 101.998 193.18 101.789C192.839 101.578 192.576 101.284 192.39 100.907C192.207 100.528 192.116 100.087 192.116 99.5838C192.116 99.081 192.207 98.6378 192.39 98.2543C192.576 97.8686 192.834 97.5682 193.164 97.353C193.496 97.1357 193.884 97.027 194.327 97.027C194.583 97.027 194.835 97.0696 195.085 97.1548C195.334 97.2401 195.561 97.3786 195.765 97.5703C195.97 97.7599 196.133 98.0114 196.254 98.3246C196.376 98.6378 196.437 99.0234 196.437 99.4815V99.8011H192.652V99.1491H195.669C195.669 98.8722 195.614 98.625 195.503 98.4077C195.395 98.1903 195.239 98.0188 195.037 97.8931C194.836 97.7674 194.6 97.7045 194.327 97.7045C194.027 97.7045 193.767 97.7791 193.547 97.9283C193.33 98.0753 193.163 98.267 193.046 98.5036C192.928 98.7401 192.87 98.9936 192.87 99.2642V99.6989C192.87 100.07 192.934 100.384 193.062 100.642C193.191 100.897 193.372 101.092 193.602 101.227C193.832 101.359 194.099 101.425 194.404 101.425C194.602 101.425 194.781 101.397 194.941 101.342C195.103 101.284 195.242 101.199 195.359 101.086C195.477 100.971 195.567 100.828 195.631 100.658L196.36 100.862C196.283 101.109 196.154 101.327 195.973 101.514C195.792 101.7 195.568 101.844 195.302 101.949C195.036 102.051 194.736 102.102 194.404 102.102Z" fill="black"/>
<path d="M25.4403 110.672V109.727H31.0689V110.672H28.7997V117H27.706V110.672H25.4403ZM33.0726 117.121C32.727 117.121 32.4145 117.057 32.1351 116.929C31.8558 116.799 31.6344 116.611 31.4711 116.364C31.3101 116.118 31.2296 115.816 31.2296 115.459C31.2296 115.151 31.2888 114.898 31.4071 114.699C31.5255 114.5 31.6853 114.343 31.8865 114.227C32.0878 114.111 32.3127 114.023 32.5613 113.964C32.8098 113.905 33.0632 113.86 33.3212 113.829C33.6479 113.791 33.9131 113.76 34.1167 113.737C34.3203 113.71 34.4682 113.669 34.5605 113.612C34.6529 113.555 34.699 113.463 34.699 113.335V113.31C34.699 113 34.6114 112.76 34.4363 112.589C34.2634 112.419 34.0054 112.334 33.6621 112.334C33.3046 112.334 33.0229 112.413 32.8169 112.572C32.6133 112.728 32.4725 112.902 32.3944 113.094L31.3965 112.866C31.5149 112.535 31.6877 112.268 31.915 112.064C32.1446 111.858 32.4086 111.709 32.7069 111.616C33.0051 111.522 33.3188 111.474 33.6479 111.474C33.8657 111.474 34.0965 111.5 34.3404 111.553C34.5866 111.602 34.8162 111.695 35.0293 111.83C35.2447 111.964 35.4211 112.157 35.5584 112.408C35.6957 112.657 35.7644 112.98 35.7644 113.378V117H34.7275V116.254H34.6848C34.6162 116.392 34.5132 116.527 34.3759 116.659C34.2386 116.792 34.0622 116.902 33.8468 116.989C33.6313 117.077 33.3733 117.121 33.0726 117.121ZM33.3034 116.268C33.597 116.268 33.848 116.21 34.0563 116.094C34.267 115.978 34.4268 115.827 34.5357 115.64C34.647 115.451 34.7026 115.248 34.7026 115.033V114.33C34.6647 114.367 34.5913 114.403 34.4824 114.436C34.3759 114.467 34.254 114.494 34.1167 114.518C33.9793 114.539 33.8456 114.559 33.7154 114.578C33.5852 114.595 33.4763 114.609 33.3887 114.621C33.1827 114.647 32.9945 114.691 32.824 114.752C32.656 114.814 32.521 114.902 32.4192 115.018C32.3198 115.132 32.2701 115.284 32.2701 115.473C32.2701 115.736 32.3671 115.935 32.5613 116.07C32.7554 116.202 33.0028 116.268 33.3034 116.268ZM38.0167 111.545L39.2205 113.669L40.435 111.545H41.5962L39.8952 114.273L41.6104 117H40.4492L39.2205 114.962L37.9954 117H36.8306L38.5281 114.273L36.8519 111.545H38.0167ZM45.3329 119.045V111.545H46.3699V112.43H46.4586C46.5202 112.316 46.609 112.185 46.725 112.036C46.841 111.886 47.002 111.756 47.2079 111.645C47.4139 111.531 47.6861 111.474 48.0247 111.474C48.465 111.474 48.858 111.586 49.2037 111.808C49.5493 112.031 49.8204 112.352 50.0169 112.771C50.2157 113.19 50.3152 113.694 50.3152 114.283C50.3152 114.873 50.2169 115.378 50.0204 115.8C49.8239 116.219 49.554 116.542 49.2108 116.769C48.8675 116.994 48.4757 117.107 48.0353 117.107C47.7039 117.107 47.4328 117.051 47.2221 116.94C47.0138 116.828 46.8504 116.698 46.7321 116.549C46.6137 116.4 46.5225 116.267 46.4586 116.151H46.3947V119.045H45.3329ZM46.3734 114.273C46.3734 114.656 46.429 114.992 46.5403 115.281C46.6516 115.57 46.8126 115.796 47.0233 115.96C47.234 116.121 47.492 116.201 47.7974 116.201C48.1146 116.201 48.3798 116.117 48.5929 115.949C48.8059 115.778 48.9669 115.548 49.0758 115.256C49.1871 114.965 49.2427 114.637 49.2427 114.273C49.2427 113.913 49.1883 113.59 49.0794 113.303C48.9728 113.017 48.8118 112.791 48.5964 112.625C48.3833 112.459 48.117 112.376 47.7974 112.376C47.4896 112.376 47.2292 112.456 47.0162 112.614C46.8055 112.773 46.6457 112.994 46.5368 113.278C46.4279 113.562 46.3734 113.894 46.3734 114.273ZM53.8556 117.11C53.3182 117.11 52.8554 116.995 52.4672 116.766C52.0813 116.534 51.783 116.208 51.5723 115.789C51.3639 115.368 51.2598 114.874 51.2598 114.308C51.2598 113.75 51.3639 113.257 51.5723 112.831C51.783 112.405 52.0765 112.072 52.4529 111.833C52.8317 111.594 53.2744 111.474 53.7811 111.474C54.0888 111.474 54.3871 111.525 54.676 111.627C54.9648 111.729 55.224 111.889 55.4537 112.107C55.6833 112.324 55.8644 112.607 55.997 112.955C56.1296 113.301 56.1958 113.721 56.1958 114.216V114.592H51.8599V113.797H55.1554C55.1554 113.518 55.0985 113.27 54.9849 113.055C54.8713 112.837 54.7115 112.665 54.5055 112.54C54.3019 112.414 54.0628 112.352 53.7882 112.352C53.4899 112.352 53.2295 112.425 53.0069 112.572C52.7868 112.716 52.6163 112.906 52.4956 113.14C52.3772 113.372 52.318 113.624 52.318 113.896V114.518C52.318 114.882 52.3819 115.192 52.5098 115.448C52.64 115.704 52.8211 115.899 53.0531 116.034C53.2851 116.167 53.5562 116.233 53.8663 116.233C54.0675 116.233 54.251 116.205 54.4167 116.148C54.5824 116.089 54.7257 116.001 54.8464 115.885C54.9672 115.769 55.0595 115.626 55.1234 115.455L56.1284 115.636C56.0479 115.932 55.9035 116.192 55.6951 116.414C55.4892 116.634 55.2299 116.806 54.9174 116.929C54.6073 117.05 54.2534 117.11 53.8556 117.11ZM57.3739 117V111.545H58.4002V112.412H58.457C58.5565 112.118 58.7317 111.888 58.9826 111.719C59.2359 111.549 59.5224 111.464 59.842 111.464C59.9083 111.464 59.9864 111.466 60.0763 111.471C60.1687 111.476 60.2409 111.482 60.293 111.489V112.504C60.2504 112.492 60.1746 112.479 60.0657 112.465C59.9568 112.449 59.8479 112.44 59.739 112.44C59.488 112.44 59.2643 112.494 59.0678 112.6C58.8737 112.704 58.7198 112.85 58.6062 113.037C58.4925 113.222 58.4357 113.432 58.4357 113.669V117H57.3739ZM61.2118 117V111.545H62.231V112.433H62.2985C62.4121 112.133 62.598 111.898 62.856 111.73C63.1141 111.56 63.423 111.474 63.7828 111.474C64.1474 111.474 64.4528 111.56 64.699 111.73C64.9476 111.901 65.1311 112.135 65.2495 112.433H65.3063C65.4365 112.142 65.6436 111.91 65.9277 111.737C66.2118 111.562 66.5504 111.474 66.9434 111.474C67.4382 111.474 67.8418 111.629 68.1543 111.94C68.4692 112.25 68.6266 112.717 68.6266 113.342V117H67.5648V113.442C67.5648 113.072 67.4642 112.805 67.263 112.639C67.0617 112.473 66.8214 112.391 66.5421 112.391C66.1964 112.391 65.9277 112.497 65.736 112.71C65.5442 112.921 65.4483 113.192 65.4483 113.523V117H64.3901V113.374C64.3901 113.078 64.2978 112.84 64.1131 112.661C63.9284 112.481 63.6882 112.391 63.3922 112.391C63.191 112.391 63.0051 112.444 62.8347 112.55C62.6666 112.655 62.5305 112.8 62.4263 112.987C62.3245 113.174 62.2736 113.391 62.2736 113.637V117H61.2118ZM70.0497 117V111.545H71.1115V117H70.0497ZM70.5859 110.704C70.4013 110.704 70.2427 110.642 70.1101 110.519C69.9799 110.394 69.9148 110.245 69.9148 110.072C69.9148 109.897 69.9799 109.747 70.1101 109.624C70.2427 109.499 70.4013 109.436 70.5859 109.436C70.7706 109.436 70.928 109.499 71.0582 109.624C71.1908 109.747 71.2571 109.897 71.2571 110.072C71.2571 110.245 71.1908 110.394 71.0582 110.519C70.928 110.642 70.7706 110.704 70.5859 110.704ZM75.0861 111.545V112.398H72.1067V111.545H75.0861ZM72.9057 110.239H73.9675V115.398C73.9675 115.604 73.9983 115.759 74.0598 115.864C74.1214 115.965 74.2007 116.035 74.2978 116.073C74.3972 116.109 74.5049 116.126 74.6209 116.126C74.7061 116.126 74.7807 116.121 74.8446 116.109C74.9086 116.097 74.9583 116.087 74.9938 116.08L75.1855 116.957C75.124 116.981 75.0364 117.005 74.9228 117.028C74.8091 117.054 74.6671 117.069 74.4966 117.071C74.2173 117.076 73.9569 117.026 73.7154 116.922C73.4739 116.818 73.2786 116.657 73.1294 116.439C72.9803 116.221 72.9057 115.948 72.9057 115.619V110.239Z" fill="black"/>
<path opacity="0.7" d="M27.8125 102H25.7926V95.4545H27.902C28.5369 95.4545 29.0803 95.5856 29.532 95.8477C29.9837 96.1076 30.3299 96.4815 30.5707 96.9695C30.8114 97.4553 30.9318 98.0369 30.9318 98.7145C30.9318 99.3963 30.8104 99.9833 30.5675 100.475C30.3246 100.966 29.9709 101.343 29.5064 101.607C29.0419 101.869 28.4773 102 27.8125 102ZM26.5852 101.297H27.7614C28.3026 101.297 28.7511 101.192 29.1069 100.984C29.4627 100.775 29.728 100.478 29.9027 100.092C30.0774 99.7063 30.1648 99.2472 30.1648 98.7145C30.1648 98.1861 30.0785 97.7312 29.9059 97.3498C29.7333 96.9663 29.4755 96.6722 29.1325 96.4677C28.7894 96.261 28.3622 96.1577 27.8509 96.1577H26.5852V101.297ZM34.1534 102.102C33.7102 102.102 33.3214 101.997 32.9869 101.786C32.6545 101.575 32.3945 101.28 32.207 100.901C32.0217 100.521 31.929 100.078 31.929 99.571C31.929 99.0597 32.0217 98.6133 32.207 98.2319C32.3945 97.8505 32.6545 97.5543 32.9869 97.3434C33.3214 97.1325 33.7102 97.027 34.1534 97.027C34.5966 97.027 34.9844 97.1325 35.3168 97.3434C35.6513 97.5543 35.9112 97.8505 36.0966 98.2319C36.2841 98.6133 36.3778 99.0597 36.3778 99.571C36.3778 100.078 36.2841 100.521 36.0966 100.901C35.9112 101.28 35.6513 101.575 35.3168 101.786C34.9844 101.997 34.5966 102.102 34.1534 102.102ZM34.1534 101.425C34.4901 101.425 34.767 101.338 34.9844 101.166C35.2017 100.993 35.3626 100.766 35.467 100.485C35.5714 100.204 35.6236 99.8991 35.6236 99.571C35.6236 99.2429 35.5714 98.9371 35.467 98.6538C35.3626 98.3704 35.2017 98.1413 34.9844 97.9666C34.767 97.7919 34.4901 97.7045 34.1534 97.7045C33.8168 97.7045 33.5398 97.7919 33.3224 97.9666C33.1051 98.1413 32.9442 98.3704 32.8398 98.6538C32.7354 98.9371 32.6832 99.2429 32.6832 99.571C32.6832 99.8991 32.7354 100.204 32.8398 100.485C32.9442 100.766 33.1051 100.993 33.3224 101.166C33.5398 101.338 33.8168 101.425 34.1534 101.425ZM39.5235 102.102C39.0633 102.102 38.667 101.994 38.3346 101.776C38.0022 101.559 37.7465 101.26 37.5676 100.878C37.3886 100.497 37.2991 100.061 37.2991 99.571C37.2991 99.0724 37.3907 98.6325 37.574 98.2511C37.7593 97.8675 38.0171 97.5682 38.3474 97.353C38.6798 97.1357 39.0676 97.027 39.5107 97.027C39.8559 97.027 40.167 97.0909 40.444 97.2188C40.721 97.3466 40.9479 97.5256 41.1247 97.7557C41.3016 97.9858 41.4113 98.2543 41.4539 98.5611H40.6997C40.6421 98.3374 40.5143 98.1392 40.3161 97.9666C40.1201 97.7919 39.8559 97.7045 39.5235 97.7045C39.2295 97.7045 38.9717 97.7812 38.7501 97.9347C38.5306 98.0859 38.3591 98.3001 38.2355 98.5771C38.1141 98.8519 38.0534 99.1747 38.0534 99.5455C38.0534 99.9247 38.113 100.255 38.2323 100.536C38.3538 100.817 38.5242 101.036 38.7437 101.191C38.9653 101.347 39.2252 101.425 39.5235 101.425C39.7195 101.425 39.8975 101.391 40.0573 101.322C40.2171 101.254 40.3524 101.156 40.4632 101.028C40.574 100.901 40.6528 100.747 40.6997 100.568H41.4539C41.4113 100.858 41.3058 101.119 41.1375 101.351C40.9713 101.581 40.7508 101.765 40.4759 101.901C40.2032 102.035 39.8857 102.102 39.5235 102.102ZM45.6503 99.9929V97.0909H46.4046V102H45.6503V101.169H45.5992C45.4841 101.418 45.3051 101.63 45.0622 101.805C44.8193 101.978 44.5125 102.064 44.1418 102.064C43.835 102.064 43.5622 101.997 43.3236 101.863C43.085 101.726 42.8975 101.522 42.7611 101.249C42.6247 100.974 42.5566 100.628 42.5566 100.21V97.0909H43.3108V100.159C43.3108 100.517 43.411 100.803 43.6112 101.016C43.8137 101.229 44.0715 101.335 44.3847 101.335C44.5722 101.335 44.7629 101.287 44.9568 101.191C45.1528 101.096 45.3169 100.949 45.449 100.75C45.5832 100.552 45.6503 100.3 45.6503 99.9929ZM47.786 102V97.0909H48.5147V97.858H48.5787C48.6809 97.5959 48.8461 97.3924 49.074 97.2475C49.302 97.1005 49.5758 97.027 49.8954 97.027C50.2193 97.027 50.4888 97.1005 50.704 97.2475C50.9213 97.3924 51.0907 97.5959 51.2122 97.858H51.2633C51.389 97.6044 51.5776 97.4031 51.829 97.2539C52.0804 97.1026 52.3819 97.027 52.7335 97.027C53.1724 97.027 53.5314 97.1644 53.8105 97.4393C54.0897 97.712 54.2292 98.1371 54.2292 98.7145V102H53.475V98.7145C53.475 98.3523 53.3759 98.0934 53.1777 97.9379C52.9796 97.7823 52.7463 97.7045 52.4778 97.7045C52.1326 97.7045 51.8652 97.8089 51.6756 98.0178C51.486 98.2244 51.3912 98.4865 51.3912 98.804V102H50.6241V98.6378C50.6241 98.3587 50.5336 98.1339 50.3525 97.9634C50.1713 97.7908 49.938 97.7045 49.6525 97.7045C49.4565 97.7045 49.2733 97.7567 49.1028 97.8612C48.9345 97.9656 48.7981 98.1104 48.6937 98.2958C48.5914 98.479 48.5403 98.6911 48.5403 98.9318V102H47.786ZM57.6665 102.102C57.1935 102.102 56.7855 101.998 56.4425 101.789C56.1016 101.578 55.8384 101.284 55.6531 100.907C55.4698 100.528 55.3782 100.087 55.3782 99.5838C55.3782 99.081 55.4698 98.6378 55.6531 98.2543C55.8384 97.8686 56.0962 97.5682 56.4265 97.353C56.7589 97.1357 57.1467 97.027 57.5898 97.027C57.8455 97.027 58.098 97.0696 58.3473 97.1548C58.5966 97.2401 58.8235 97.3786 59.0281 97.5703C59.2326 97.7599 59.3956 98.0114 59.517 98.3246C59.6385 98.6378 59.6992 99.0234 59.6992 99.4815V99.8011H55.9151V99.1491H58.9322C58.9322 98.8722 58.8768 98.625 58.766 98.4077C58.6573 98.1903 58.5018 98.0188 58.2994 97.8931C58.0991 97.7674 57.8626 97.7045 57.5898 97.7045C57.2894 97.7045 57.0295 97.7791 56.81 97.9283C56.5927 98.0753 56.4254 98.267 56.3082 98.5036C56.1911 98.7401 56.1325 98.9936 56.1325 99.2642V99.6989C56.1325 100.07 56.1964 100.384 56.3242 100.642C56.4542 100.897 56.6342 101.092 56.8643 101.227C57.0945 101.359 57.3619 101.425 57.6665 101.425C57.8647 101.425 58.0437 101.397 58.2035 101.342C58.3654 101.284 58.505 101.199 58.6222 101.086C58.7393 100.971 58.8299 100.828 58.8938 100.658L59.6225 100.862C59.5458 101.109 59.4169 101.327 59.2358 101.514C59.0547 101.7 58.831 101.844 58.5646 101.949C58.2983 102.051 57.9989 102.102 57.6665 102.102ZM61.6009 99.0469V102H60.8466V97.0909H61.5753V97.858H61.6392C61.7543 97.6087 61.929 97.4084 62.1634 97.2571C62.3977 97.1037 62.7003 97.027 63.071 97.027C63.4034 97.027 63.6942 97.0952 63.9435 97.2315C64.1928 97.3658 64.3867 97.5703 64.5252 97.8452C64.6637 98.1179 64.733 98.4631 64.733 98.8807V102H63.9787V98.9318C63.9787 98.5462 63.8786 98.2457 63.6783 98.0305C63.478 97.8132 63.2031 97.7045 62.8537 97.7045C62.6129 97.7045 62.3977 97.7567 62.2081 97.8612C62.0206 97.9656 61.8725 98.1179 61.7638 98.3182C61.6552 98.5185 61.6009 98.7614 61.6009 99.0469ZM68.2462 97.0909V97.7301H65.7021V97.0909H68.2462ZM66.4436 95.9148H67.1979V100.594C67.1979 100.807 67.2288 100.967 67.2906 101.073C67.3545 101.178 67.4355 101.248 67.5335 101.284C67.6336 101.318 67.7391 101.335 67.8499 101.335C67.933 101.335 68.0012 101.331 68.0544 101.322C68.1077 101.312 68.1503 101.303 68.1823 101.297L68.3357 101.974C68.2845 101.994 68.2132 102.013 68.1215 102.032C68.0299 102.053 67.9138 102.064 67.7732 102.064C67.5601 102.064 67.3513 102.018 67.1468 101.926C66.9443 101.835 66.776 101.695 66.6418 101.508C66.5097 101.32 66.4436 101.084 66.4436 100.798V95.9148ZM71.6563 96.1577V95.4545H76.5654V96.1577H74.5072V102H73.7146V96.1577H71.6563ZM77.6097 103.841C77.4819 103.841 77.3679 103.83 77.2678 103.809C77.1676 103.79 77.0984 103.771 77.06 103.751L77.2518 103.087C77.435 103.134 77.5969 103.151 77.7376 103.138C77.8782 103.125 78.0028 103.062 78.1115 102.949C78.2223 102.838 78.3235 102.658 78.4151 102.409L78.5558 102.026L76.7404 97.0909H77.5586L78.9137 101.003H78.9648L80.32 97.0909H81.1381L79.0543 102.716C78.9606 102.969 78.8445 103.179 78.706 103.346C78.5675 103.514 78.4066 103.638 78.2234 103.719C78.0423 103.8 77.8377 103.841 77.6097 103.841ZM82.1337 103.841V97.0909H82.8624V97.8707H82.9519C83.0073 97.7855 83.084 97.6768 83.182 97.5447C83.2821 97.4105 83.4249 97.2912 83.6103 97.1868C83.7978 97.0803 84.0513 97.027 84.3709 97.027C84.7843 97.027 85.1486 97.1303 85.464 97.337C85.7793 97.5437 86.0254 97.8366 86.2022 98.2159C86.3791 98.5952 86.4675 99.0426 86.4675 99.5582C86.4675 100.078 86.3791 100.529 86.2022 100.91C86.0254 101.289 85.7804 101.583 85.4672 101.792C85.1539 101.999 84.7928 102.102 84.3837 102.102C84.0684 102.102 83.8159 102.05 83.6262 101.946C83.4366 101.839 83.2907 101.719 83.1884 101.585C83.0861 101.448 83.0073 101.335 82.9519 101.246H82.888V103.841H82.1337ZM82.8752 99.5455C82.8752 99.9162 82.9295 100.243 83.0382 100.527C83.1468 100.808 83.3056 101.028 83.5144 101.188C83.7232 101.346 83.9789 101.425 84.2814 101.425C84.5968 101.425 84.8599 101.342 85.0708 101.175C85.2839 101.007 85.4437 100.781 85.5502 100.498C85.6589 100.212 85.7132 99.8949 85.7132 99.5455C85.7132 99.2003 85.66 98.8892 85.5534 98.6122C85.449 98.3331 85.2903 98.1126 85.0772 97.9506C84.8663 97.7866 84.601 97.7045 84.2814 97.7045C83.9746 97.7045 83.7168 97.7823 83.508 97.9379C83.2992 98.0913 83.1415 98.3065 83.035 98.5835C82.9284 98.8583 82.8752 99.179 82.8752 99.5455ZM89.6763 102.102C89.2033 102.102 88.7953 101.998 88.4522 101.789C88.1113 101.578 87.8482 101.284 87.6628 100.907C87.4796 100.528 87.388 100.087 87.388 99.5838C87.388 99.081 87.4796 98.6378 87.6628 98.2543C87.8482 97.8686 88.106 97.5682 88.4363 97.353C88.7686 97.1357 89.1564 97.027 89.5996 97.027C89.8553 97.027 90.1078 97.0696 90.3571 97.1548C90.6064 97.2401 90.8333 97.3786 91.0378 97.5703C91.2424 97.7599 91.4054 98.0114 91.5268 98.3246C91.6483 98.6378 91.709 99.0234 91.709 99.4815V99.8011H87.9249V99.1491H90.9419C90.9419 98.8722 90.8865 98.625 90.7757 98.4077C90.6671 98.1903 90.5115 98.0188 90.3091 97.8931C90.1088 97.7674 89.8723 97.7045 89.5996 97.7045C89.2992 97.7045 89.0392 97.7791 88.8198 97.9283C88.6025 98.0753 88.4352 98.267 88.318 98.5036C88.2008 98.7401 88.1422 98.9936 88.1422 99.2642V99.6989C88.1422 100.07 88.2061 100.384 88.334 100.642C88.464 100.897 88.644 101.092 88.8741 101.227C89.1042 101.359 89.3716 101.425 89.6763 101.425C89.8745 101.425 90.0534 101.397 90.2132 101.342C90.3752 101.284 90.5147 101.199 90.6319 101.086C90.7491 100.971 90.8397 100.828 90.9036 100.658L91.6323 100.862C91.5556 101.109 91.4267 101.327 91.2456 101.514C91.0645 101.7 90.8407 101.844 90.5744 101.949C90.3081 102.051 90.0087 102.102 89.6763 102.102Z" fill="black"/>
<defs>
<filter id="filter0_d_160_1534" x="-1" y="0" width="226" height="152" filterUnits="userSpaceOnUse" color-interpolation-filters="sRGB">
<feFlood flood-opacity="0" result="BackgroundImageFix"/>
<feColorMatrix in="SourceAlpha" type="matrix" values="0 0 0 0 0 0 0 0 0 0 0 0 0 0 0 0 0 0 127 0" result="hardAlpha"/>
<feOffset dy="-4"/>
<feGaussianBlur stdDeviation="13"/>
<feComposite in2="hardAlpha" operator="out"/>
<feColorMatrix type="matrix" values="0 0 0 0 0 0 0 0 0 0 0 0 0 0 0 0 0 0 0.25 0"/>
<feBlend mode="normal" in2="BackgroundImageFix" result="effect1_dropShadow_160_1534"/>
<feBlend mode="normal" in="SourceGraphic" in2="effect1_dropShadow_160_1534" result="shape"/>
</filter>
<filter id="filter1_d_160_1534" x="-11" y="8" width="246" height="147" filterUnits="userSpaceOnUse" color-interpolation-filters="sRGB">
<feFlood flood-opacity="0" result="BackgroundImageFix"/>
<feColorMatrix in="SourceAlpha" type="matrix" values="0 0 0 0 0 0 0 0 0 0 0 0 0 0 0 0 0 0 127 0" result="hardAlpha"/>
<feOffset dy="-4"/>
<feGaussianBlur stdDeviation="13"/>
<feComposite in2="hardAlpha" operator="out"/>
<feColorMatrix type="matrix" values="0 0 0 0 0 0 0 0 0 0 0 0 0 0 0 0 0 0 0.25 0"/>
<feBlend mode="normal" in2="BackgroundImageFix" result="effect1_dropShadow_160_1534"/>
<feBlend mode="normal" in="SourceGraphic" in2="effect1_dropShadow_160_1534" result="shape"/>
</filter>
<linearGradient id="paint0_linear_160_1534" x1="-18.95" y1="45.4769" x2="228.448" y2="92.8696" gradientUnits="userSpaceOnUse">
<stop stop-color="#A9D8F0"/>
<stop offset="1" stop-color="#8ED3F7"/>
</linearGradient>
</defs>
</svg>
