<svg width="16" height="12" viewBox="0 0 16 12" fill="none" xmlns="http://www.w3.org/2000/svg">
<path d="M3.33366 11.3333V10H4.40033L5.71699 5.61667C5.80588 5.32778 5.96988 5.09711 6.20899 4.92467C6.4481 4.75222 6.71188 4.66622 7.00033 4.66667H9.00033C9.28922 4.66667 9.55321 4.75289 9.79233 4.92533C10.0314 5.09778 10.1952 5.32822 10.2837 5.61667L11.6003 10H12.667V11.3333H3.33366ZM7.33366 3.33333V0H8.66699V3.33333H7.33366ZM11.3003 4.98333L10.3503 4.03333L12.717 1.68333L13.6503 2.61667L11.3003 4.98333ZM12.0003 8V6.66667H15.3337V8H12.0003ZM4.70033 4.98333L2.35033 2.61667L3.28366 1.68333L5.65033 4.03333L4.70033 4.98333ZM0.666992 8V6.66667H4.00033V8H0.666992Z" fill="#F01C1C"/>
</svg>
