<svg width="18" height="18" viewBox="0 0 18 18" fill="none" xmlns="http://www.w3.org/2000/svg">
<path d="M4.8243 13.2556L7.12784 10.9521L6.3627 10.1869L4.05915 12.4905L3.63005 12.0614C3.52857 11.9599 3.39096 11.9029 3.24747 11.9029C3.10399 11.9029 2.96638 11.9599 2.8649 12.0614L0.700425 14.2258C0.59898 14.3273 0.541992 14.4649 0.541992 14.6084C0.541992 14.7519 0.59898 14.8895 0.700425 14.991L2.32378 16.6143C2.42526 16.7158 2.56287 16.7728 2.70636 16.7728C2.84984 16.7728 2.98745 16.7158 3.08893 16.6143L5.25341 14.4499C5.35485 14.3484 5.41184 14.2108 5.41184 14.0673C5.41184 13.9238 5.35485 13.7862 5.25341 13.6847L4.8243 13.2556ZM2.70636 15.4666L1.84814 14.6084L3.24747 13.2091L4.10569 14.0673L2.70636 15.4666Z" fill="#339657"/>
<path d="M12.9846 16.2333C12.1239 16.2323 11.2986 15.8899 10.69 15.2812C10.0813 14.6726 9.73893 13.8474 9.73793 12.9866C9.73817 12.7037 9.77639 12.4222 9.85156 12.1495L5.16439 7.46175C4.89151 7.53692 4.60978 7.57513 4.32673 7.57538C3.79775 7.5775 3.27633 7.44981 2.80818 7.20351C2.34003 6.95721 1.93945 6.59982 1.64156 6.16269C1.34367 5.72555 1.15757 5.22201 1.09957 4.69621C1.04158 4.17041 1.11346 3.63841 1.30891 3.14686L1.61085 2.37793L3.40304 4.17011C3.50603 4.26846 3.64295 4.32333 3.78534 4.32333C3.92774 4.32333 4.06466 4.26846 4.16764 4.17011C4.21794 4.11991 4.25784 4.06027 4.28506 3.99463C4.31229 3.92898 4.3263 3.85861 4.3263 3.78754C4.3263 3.71648 4.31229 3.64611 4.28506 3.58046C4.25784 3.51481 4.21794 3.45518 4.16764 3.40497L2.376 1.6117L3.14601 1.3103C3.63756 1.11519 4.16945 1.0436 4.69509 1.10179C5.22073 1.15999 5.72408 1.34619 6.16104 1.64409C6.59801 1.94198 6.95526 2.34249 7.2015 2.81052C7.44774 3.27855 7.57545 3.79982 7.57345 4.32866C7.57321 4.61153 7.53499 4.89308 7.45981 5.16577L12.1475 9.85349C12.4202 9.77842 12.7018 9.7402 12.9846 9.73986C13.5136 9.73775 14.0351 9.86543 14.5032 10.1117C14.9714 10.358 15.3719 10.7154 15.6698 11.1526C15.9677 11.5897 16.1538 12.0932 16.2118 12.619C16.2698 13.1448 16.1979 13.6768 16.0025 14.1684L15.7011 14.9373L13.9083 13.1451C13.8054 13.0468 13.6684 12.9919 13.526 12.9919C13.3836 12.9919 13.2467 13.0468 13.1437 13.1451C13.0934 13.1953 13.0535 13.2549 13.0262 13.3205C12.9989 13.3862 12.9849 13.4565 12.9848 13.5276C12.9848 13.5987 12.9987 13.669 13.0259 13.7347C13.0531 13.8004 13.0929 13.86 13.1432 13.9103L14.9359 15.703L14.1665 16.0049C13.7903 16.1545 13.3894 16.232 12.9846 16.2333ZM5.44252 6.20959L11.1032 11.8702L10.9738 12.2003C10.8471 12.5171 10.7976 12.8596 10.8293 13.1993C10.8611 13.5391 10.9732 13.8664 11.1564 14.1542C11.3396 14.4421 11.5887 14.6822 11.8831 14.8548C12.1775 15.0274 12.5087 15.1274 12.8494 15.1467L12.3781 14.676C12.2273 14.5252 12.1077 14.3462 12.0261 14.1493C11.9445 13.9523 11.9025 13.7412 11.9025 13.528C11.9025 13.3148 11.9445 13.1036 12.0261 12.9067C12.1077 12.7097 12.2273 12.5307 12.3781 12.38C12.6873 12.0847 13.0984 11.9199 13.526 11.9199C13.9536 11.9199 14.3648 12.0847 14.674 12.38L15.1448 12.8513C15.1254 12.5106 15.0253 12.1794 14.8526 11.885C14.68 11.5907 14.4398 11.3416 14.1519 11.1584C13.864 10.9751 13.5367 10.863 13.1969 10.8313C12.8572 10.7995 12.5147 10.8491 12.1979 10.9758L11.8683 11.1051L6.20821 5.44499L6.33807 5.11491C6.46482 4.79805 6.51435 4.45558 6.48258 4.11579C6.45081 3.77601 6.33864 3.44866 6.15534 3.16079C5.97205 2.87292 5.72289 2.6328 5.42845 2.46026C5.13401 2.28772 4.80274 2.18772 4.46201 2.16851L4.93279 2.63929C5.08356 2.79003 5.20316 2.969 5.28476 3.16598C5.36636 3.36295 5.40835 3.57407 5.40835 3.78727C5.40835 4.00048 5.36636 4.2116 5.28476 4.40857C5.20316 4.60554 5.08356 4.78451 4.93279 4.93526C4.62354 5.23055 4.21239 5.39531 3.7848 5.39531C3.35721 5.39531 2.94607 5.23055 2.63682 4.93526L2.16604 4.46394C2.18533 4.80462 2.28539 5.13583 2.45796 5.4302C2.63054 5.72457 2.87067 5.97366 3.15852 6.1569C3.44638 6.34013 3.7737 6.45225 4.11345 6.48399C4.4532 6.51574 4.79562 6.4662 5.11244 6.33946L5.44252 6.20959Z" fill="#339657"/>
<path d="M15.7596 1.54221C15.4503 1.24692 15.0392 1.08215 14.6116 1.08215C14.184 1.08215 13.7728 1.24692 13.4636 1.54221L9.41602 5.58979L10.1812 6.35493L14.2287 2.30735C14.3318 2.20898 14.4688 2.15409 14.6113 2.15409C14.7538 2.15409 14.8908 2.20898 14.9939 2.30735C15.0951 2.40897 15.1519 2.54653 15.1519 2.68992C15.1519 2.83332 15.0951 2.97088 14.9939 3.0725L10.9463 7.12007L11.7114 7.88576L15.759 3.83818C16.0631 3.53352 16.2339 3.12065 16.2339 2.6902C16.2339 2.25974 16.0637 1.84687 15.7596 1.54221Z" fill="#339657"/>
</svg>
