<svg width="573" height="579" viewBox="0 0 573 579" fill="none" xmlns="http://www.w3.org/2000/svg">
<g filter="url(#filter0_di_278_963)">
<circle cx="286.5" cy="281.5" r="276.129" fill="white"/>
</g>
<g filter="url(#filter1_d_278_963)">
<circle cx="283.223" cy="272.399" r="85.5611" transform="rotate(90 283.223 272.399)" fill="white"/>
</g>
<circle cx="283.286" cy="273.713" r="137.027" transform="rotate(90 283.286 273.713)" stroke="#D0E9EE" stroke-width="3.37059"/>
<g filter="url(#filter2_d_278_963)">
<circle cx="283.909" cy="272.057" r="42.3889" transform="rotate(85 283.909 272.057)" fill="#F2F2F2"/>
</g>
<circle cx="283.826" cy="272.281" r="14.9354" transform="rotate(85.142 283.826 272.281)" fill="#45C09B"/>
<g filter="url(#filter3_i_278_963)">
<path d="M180.685 416.413C150.883 394.476 128.739 363.718 117.39 328.496C106.042 293.274 106.063 255.374 117.452 220.164C128.841 184.955 151.02 154.222 180.847 132.319C210.673 110.416 246.636 98.4528 283.64 98.1248C320.644 97.7969 356.812 109.121 387.023 130.492C417.233 151.863 439.953 182.198 451.964 217.2C463.975 252.201 464.669 290.095 453.946 325.513C443.223 360.931 421.628 392.077 392.22 414.539L378.931 397.141C404.688 377.468 423.602 350.189 432.993 319.169C442.384 288.15 441.777 254.961 431.257 224.306C420.738 193.65 400.839 167.082 374.38 148.364C347.921 129.647 316.243 119.729 283.834 120.016C251.425 120.304 219.928 130.781 193.804 149.965C167.681 169.148 148.256 196.065 138.282 226.902C128.307 257.739 128.288 290.933 138.228 321.782C148.167 352.63 167.562 379.569 193.663 398.783L180.685 416.413Z" fill="#E2E2E2"/>
</g>
<path d="M172.309 427.235C172.056 427.582 171.569 427.659 171.223 427.405C139.12 403.866 115.188 370.86 102.798 333.016C90.3273 294.925 90.184 253.871 102.388 215.694C114.593 177.517 138.524 144.16 170.778 120.366C203.032 96.5727 241.967 83.5546 282.046 83.1631C322.124 82.7717 361.306 95.0269 394.019 118.186C426.731 141.345 451.309 174.228 464.257 212.16C477.205 250.091 477.863 291.14 466.139 329.467C454.491 367.546 431.208 401.013 399.571 425.175C399.229 425.435 398.741 425.368 398.482 425.026L395.944 421.674C395.684 421.331 395.752 420.843 396.094 420.583C426.765 397.153 449.337 364.703 460.631 327.782C472.001 290.613 471.362 250.806 458.806 214.02C446.249 177.235 422.414 145.346 390.69 122.887C358.967 100.428 320.969 88.5433 282.102 88.9229C243.235 89.3025 205.476 101.927 174.197 125.001C142.918 148.076 119.711 180.425 107.875 217.448C96.0394 254.471 96.1783 294.284 108.272 331.224C120.285 367.917 143.487 399.92 174.61 422.746C174.956 423 175.034 423.486 174.781 423.834L172.309 427.235Z" fill="url(#paint0_linear_278_963)"/>
<line opacity="0.5" x1="425.476" y1="133.119" x2="433.932" y2="124.208" stroke="#204F3A" stroke-width="3.88914" stroke-linecap="round"/>
<line opacity="0.5" x1="138.643" y1="130.604" x2="130.837" y2="121.117" stroke="#204F3A" stroke-width="3.88914" stroke-linecap="round"/>
<line opacity="0.5" x1="138.954" y1="417.962" x2="129.668" y2="426.004" stroke="#204F3A" stroke-width="3.88914" stroke-linecap="round"/>
<line opacity="0.5" x1="101.184" y1="183.938" x2="90.6345" y2="177.644" stroke="#204F3A" stroke-width="3.88914" stroke-linecap="round"/>
<line opacity="0.5" x1="83.3851" y1="243.403" x2="71.7182" y2="239.556" stroke="#204F3A" stroke-width="3.88914" stroke-linecap="round"/>
<line opacity="0.5" x1="84.594" y1="305.645" x2="72.7038" y2="308.733" stroke="#204F3A" stroke-width="3.88914" stroke-linecap="round"/>
<line opacity="0.5" x1="102.273" y1="366.544" x2="91.659" y2="372.728" stroke="#204F3A" stroke-width="3.88914" stroke-linecap="round"/>
<line opacity="0.5" x1="374.074" y1="95.3634" x2="381.046" y2="85.2488" stroke="#204F3A" stroke-width="3.88914" stroke-linecap="round"/>
<line opacity="0.5" x1="314.267" y1="73.1686" x2="318.151" y2="61.5141" stroke="#204F3A" stroke-width="3.88914" stroke-linecap="round"/>
<line opacity="0.5" x1="251.285" y1="74.7213" x2="249.606" y2="62.5518" stroke="#204F3A" stroke-width="3.88914" stroke-linecap="round"/>
<line opacity="0.5" x1="190.914" y1="94.2123" x2="185.729" y2="83.0753" stroke="#204F3A" stroke-width="3.88914" stroke-linecap="round"/>
<line opacity="0.5" x1="431.913" y1="416.528" x2="440.321" y2="425.484" stroke="#204F3A" stroke-width="3.88914" stroke-linecap="round"/>
<line opacity="0.5" x1="468.165" y1="364.606" x2="478.899" y2="370.581" stroke="#204F3A" stroke-width="3.88914" stroke-linecap="round"/>
<line opacity="0.5" x1="486.763" y1="305.968" x2="499.036" y2="306.501" stroke="#204F3A" stroke-width="3.88914" stroke-linecap="round"/>
<line opacity="0.5" x1="483.846" y1="242.351" x2="495.642" y2="238.92" stroke="#204F3A" stroke-width="3.88914" stroke-linecap="round"/>
<line opacity="0.5" x1="465.24" y1="181.908" x2="475.879" y2="175.766" stroke="#204F3A" stroke-width="3.88914" stroke-linecap="round"/>
<line x1="161.717" y1="439.383" x2="154.043" y2="448.975" stroke="#3094A5" stroke-width="3.88914" stroke-linecap="round"/>
<line x1="118.552" y1="156.293" x2="108.748" y2="148.89" stroke="#3094A5" stroke-width="3.88914" stroke-linecap="round"/>
<line x1="399.786" y1="111.492" x2="407.39" y2="101.844" stroke="#3094A5" stroke-width="3.88914" stroke-linecap="round"/>
<line x1="452.579" y1="392.226" x2="462.868" y2="398.937" stroke="#3094A5" stroke-width="3.88914" stroke-linecap="round"/>
<line x1="408.641" y1="434.955" x2="415.86" y2="444.895" stroke="#3094A5" stroke-width="3.88914" stroke-linecap="round"/>
<line x1="445.996" y1="155.208" x2="455.089" y2="146.948" stroke="#3094A5" stroke-width="3.88914" stroke-linecap="round"/>
<line x1="475.743" y1="210.109" x2="487.2" y2="205.677" stroke="#3094A5" stroke-width="3.88914" stroke-linecap="round"/>
<line x1="486.678" y1="273.045" x2="498.963" y2="273.045" stroke="#3094A5" stroke-width="3.88914" stroke-linecap="round"/>
<line x1="479.103" y1="335.516" x2="490.89" y2="338.98" stroke="#3094A5" stroke-width="3.88914" stroke-linecap="round"/>
<line x1="162.803" y1="111.504" x2="154.818" y2="102.169" stroke="#3094A5" stroke-width="3.88914" stroke-linecap="round"/>
<line x1="220.24" y1="81.8494" x2="215.861" y2="70.3716" stroke="#3094A5" stroke-width="3.88914" stroke-linecap="round"/>
<line x1="281.07" y1="71.4561" x2="281.07" y2="59.1713" stroke="#3094A5" stroke-width="3.88914" stroke-linecap="round"/>
<line x1="343.771" y1="80.4983" x2="349.446" y2="69.6029" stroke="#3094A5" stroke-width="3.88914" stroke-linecap="round"/>
<line x1="119.437" y1="392.665" x2="109.828" y2="400.32" stroke="#3094A5" stroke-width="3.88914" stroke-linecap="round"/>
<line x1="91.7321" y1="335.679" x2="80.6513" y2="340.983" stroke="#3094A5" stroke-width="3.88914" stroke-linecap="round"/>
<line x1="82.1801" y1="274.439" x2="69.8954" y2="274.412" stroke="#3094A5" stroke-width="3.88914" stroke-linecap="round"/>
<line x1="90.3808" y1="214.163" x2="79.0821" y2="209.34" stroke="#3094A5" stroke-width="3.88914" stroke-linecap="round"/>
<g filter="url(#filter4_i_278_963)">
<path d="M565 281.5C565 434.085 440.163 557.858 286.071 557.858C131.978 557.858 7.14155 434.085 7.14155 281.5C7.14155 128.915 131.978 5.14155 286.071 5.14155C440.163 5.14155 565 128.915 565 281.5Z" stroke="url(#paint1_linear_278_963)" stroke-width="10.2831"/>
</g>
<defs>
<filter id="filter0_di_278_963" x="5.34058e-05" y="5.37122" width="573" height="573" filterUnits="userSpaceOnUse" color-interpolation-filters="sRGB">
<feFlood flood-opacity="0" result="BackgroundImageFix"/>
<feColorMatrix in="SourceAlpha" type="matrix" values="0 0 0 0 0 0 0 0 0 0 0 0 0 0 0 0 0 0 127 0" result="hardAlpha"/>
<feOffset dy="10.371"/>
<feGaussianBlur stdDeviation="5.18552"/>
<feComposite in2="hardAlpha" operator="out"/>
<feColorMatrix type="matrix" values="0 0 0 0 0 0 0 0 0 0 0 0 0 0 0 0 0 0 0.25 0"/>
<feBlend mode="normal" in2="BackgroundImageFix" result="effect1_dropShadow_278_963"/>
<feBlend mode="normal" in="SourceGraphic" in2="effect1_dropShadow_278_963" result="shape"/>
<feColorMatrix in="SourceAlpha" type="matrix" values="0 0 0 0 0 0 0 0 0 0 0 0 0 0 0 0 0 0 127 0" result="hardAlpha"/>
<feOffset/>
<feGaussianBlur stdDeviation="1.29638"/>
<feComposite in2="hardAlpha" operator="arithmetic" k2="-1" k3="1"/>
<feColorMatrix type="matrix" values="0 0 0 0 0.00633681 0 0 0 0 0.125469 0 0 0 0 0.304167 0 0 0 0.5 0"/>
<feBlend mode="normal" in2="shape" result="effect2_innerShadow_278_963"/>
</filter>
<filter id="filter1_d_278_963" x="126.662" y="115.838" width="313.122" height="313.122" filterUnits="userSpaceOnUse" color-interpolation-filters="sRGB">
<feFlood flood-opacity="0" result="BackgroundImageFix"/>
<feColorMatrix in="SourceAlpha" type="matrix" values="0 0 0 0 0 0 0 0 0 0 0 0 0 0 0 0 0 0 127 0" result="hardAlpha"/>
<feOffset/>
<feGaussianBlur stdDeviation="35.5"/>
<feComposite in2="hardAlpha" operator="out"/>
<feColorMatrix type="matrix" values="0 0 0 0 0 0 0 0 0 0 0 0 0 0 0 0 0 0 0.1 0"/>
<feBlend mode="normal" in2="BackgroundImageFix" result="effect1_dropShadow_278_963"/>
<feBlend mode="normal" in="SourceGraphic" in2="effect1_dropShadow_278_963" result="shape"/>
</filter>
<filter id="filter2_d_278_963" x="235.518" y="223.665" width="96.7832" height="96.783" filterUnits="userSpaceOnUse" color-interpolation-filters="sRGB">
<feFlood flood-opacity="0" result="BackgroundImageFix"/>
<feColorMatrix in="SourceAlpha" type="matrix" values="0 0 0 0 0 0 0 0 0 0 0 0 0 0 0 0 0 0 127 0" result="hardAlpha"/>
<feOffset/>
<feGaussianBlur stdDeviation="3"/>
<feComposite in2="hardAlpha" operator="out"/>
<feColorMatrix type="matrix" values="0 0 0 0 0 0 0 0 0 0 0 0 0 0 0 0 0 0 0.22 0"/>
<feBlend mode="normal" in2="BackgroundImageFix" result="effect1_dropShadow_278_963"/>
<feBlend mode="normal" in="SourceGraphic" in2="effect1_dropShadow_278_963" result="shape"/>
</filter>
<filter id="filter3_i_278_963" x="108.895" y="98.1179" width="352.615" height="322.295" filterUnits="userSpaceOnUse" color-interpolation-filters="sRGB">
<feFlood flood-opacity="0" result="BackgroundImageFix"/>
<feBlend mode="normal" in="SourceGraphic" in2="BackgroundImageFix" result="shape"/>
<feColorMatrix in="SourceAlpha" type="matrix" values="0 0 0 0 0 0 0 0 0 0 0 0 0 0 0 0 0 0 127 0" result="hardAlpha"/>
<feOffset dy="4"/>
<feGaussianBlur stdDeviation="2"/>
<feComposite in2="hardAlpha" operator="arithmetic" k2="-1" k3="1"/>
<feColorMatrix type="matrix" values="0 0 0 0 0 0 0 0 0 0 0 0 0 0 0 0 0 0 0.25 0"/>
<feBlend mode="normal" in2="shape" result="effect1_innerShadow_278_963"/>
</filter>
<filter id="filter4_i_278_963" x="2" y="0" width="568.142" height="563" filterUnits="userSpaceOnUse" color-interpolation-filters="sRGB">
<feFlood flood-opacity="0" result="BackgroundImageFix"/>
<feBlend mode="normal" in="SourceGraphic" in2="BackgroundImageFix" result="shape"/>
<feColorMatrix in="SourceAlpha" type="matrix" values="0 0 0 0 0 0 0 0 0 0 0 0 0 0 0 0 0 0 127 0" result="hardAlpha"/>
<feOffset/>
<feGaussianBlur stdDeviation="1"/>
<feComposite in2="hardAlpha" operator="arithmetic" k2="-1" k3="1"/>
<feColorMatrix type="matrix" values="0 0 0 0 0 0 0 0 0 0 0 0 0 0 0 0 0 0 1 0"/>
<feBlend mode="normal" in2="shape" result="effect1_innerShadow_278_963"/>
</filter>
<linearGradient id="paint0_linear_278_963" x1="423.405" y1="106.678" x2="146.958" y2="421.418" gradientUnits="userSpaceOnUse">
<stop stop-color="#00C4FF"/>
<stop offset="1" stop-color="#008D8B"/>
</linearGradient>
<linearGradient id="paint1_linear_278_963" x1="126.683" y1="591.279" x2="486.591" y2="39.847" gradientUnits="userSpaceOnUse">
<stop stop-color="white"/>
<stop offset="0.172144" stop-color="#CCCCCC"/>
<stop offset="0.403178" stop-color="#BDBDBD"/>
<stop offset="0.561211" stop-color="#A0A0A0"/>
<stop offset="0.708346" stop-color="#9C9C9C"/>
<stop offset="0.828125" stop-color="#EAEBEA"/>
<stop offset="1" stop-color="#D2D2D2"/>
</linearGradient>
</defs>
</svg>
