<svg width="581" height="593" viewBox="0 0 581 593" fill="none" xmlns="http://www.w3.org/2000/svg">
<g filter="url(#filter0_d_287_1037)">
<circle cx="290.529" cy="292.585" r="280.039" fill="white"/>
</g>
<g filter="url(#filter1_d_287_1037)">
<circle cx="287.205" cy="283.355" r="86.7726" transform="rotate(90 287.205 283.355)" fill="white"/>
</g>
<circle cx="287.27" cy="284.687" r="138.991" transform="rotate(90 287.27 284.687)" stroke="#D0E9EE" stroke-width="3.37059"/>
<g filter="url(#filter2_i_287_1037)">
<path d="M187.375 429.536C157.573 407.599 135.43 376.84 124.081 341.618C112.732 306.396 112.754 268.496 124.142 233.287C135.531 198.078 157.71 167.345 187.537 145.442C217.364 123.538 253.326 111.575 290.33 111.247C327.334 110.919 363.503 122.243 393.713 143.614C423.924 164.985 446.644 195.321 458.655 230.322C470.666 265.324 471.359 303.218 460.637 338.636C449.914 374.053 428.319 405.199 398.91 427.661L385.622 410.263C411.378 390.59 430.292 363.312 439.683 332.292C449.075 301.272 448.467 268.084 437.948 237.428C427.428 206.773 407.529 180.204 381.07 161.487C354.611 142.769 322.933 132.852 290.524 133.139C258.115 133.426 226.618 143.904 200.495 163.087C174.372 182.271 154.947 209.187 144.972 240.025C134.997 270.862 134.979 304.056 144.918 334.904C154.858 365.753 174.252 392.692 200.353 411.905L187.375 429.536Z" fill="#E2E2E2"/>
</g>
<path d="M178.999 440.357C178.747 440.705 178.26 440.781 177.913 440.527C145.81 416.989 121.879 383.983 109.488 346.138C97.0177 308.047 96.8744 266.994 109.079 228.817C121.283 190.639 145.214 157.282 177.468 133.489C209.722 109.695 248.657 96.6771 288.736 96.2857C328.815 95.8943 367.996 108.149 400.709 131.308C433.422 154.467 458 187.351 470.947 225.282C483.895 263.214 484.554 304.262 472.829 342.59C461.181 380.669 437.899 414.136 406.261 438.297C405.92 438.558 405.432 438.491 405.172 438.148L402.634 434.796C402.375 434.454 402.443 433.966 402.784 433.705C433.455 410.275 456.027 377.825 467.321 340.905C478.691 303.736 478.053 263.928 465.496 227.143C452.94 190.358 429.105 158.468 397.381 136.009C365.657 113.551 327.659 101.666 288.792 102.045C249.925 102.425 212.167 115.05 180.888 138.124C149.609 161.198 126.401 193.547 114.565 230.571C102.73 267.594 102.869 307.406 114.963 344.346C126.976 381.039 150.177 413.042 181.3 435.868C181.647 436.122 181.724 436.609 181.471 436.957L178.999 440.357Z" fill="url(#paint0_linear_287_1037)"/>
<line opacity="0.5" x1="431.473" y1="142.142" x2="440.087" y2="133.065" stroke="#204F3A" stroke-width="3.88914" stroke-linecap="round"/>
<line opacity="0.5" x1="140.616" y1="139.556" x2="132.665" y2="129.893" stroke="#204F3A" stroke-width="3.88914" stroke-linecap="round"/>
<line opacity="0.5" x1="140.897" y1="430.94" x2="131.438" y2="439.133" stroke="#204F3A" stroke-width="3.88914" stroke-linecap="round"/>
<line opacity="0.5" x1="102.627" y1="193.632" x2="91.8802" y2="187.221" stroke="#204F3A" stroke-width="3.88914" stroke-linecap="round"/>
<line opacity="0.5" x1="84.5726" y1="253.931" x2="72.6882" y2="250.012" stroke="#204F3A" stroke-width="3.88914" stroke-linecap="round"/>
<line opacity="0.5" x1="85.7835" y1="317.038" x2="73.6716" y2="320.184" stroke="#204F3A" stroke-width="3.88914" stroke-linecap="round"/>
<line opacity="0.5" x1="103.703" y1="378.795" x2="92.8908" y2="385.095" stroke="#204F3A" stroke-width="3.88914" stroke-linecap="round"/>
<line opacity="0.5" x1="379.349" y1="103.851" x2="386.451" y2="93.5481" stroke="#204F3A" stroke-width="3.88914" stroke-linecap="round"/>
<line opacity="0.5" x1="318.707" y1="81.3387" x2="322.663" y2="69.4669" stroke="#204F3A" stroke-width="3.88914" stroke-linecap="round"/>
<line opacity="0.5" x1="254.846" y1="82.9021" x2="253.136" y2="70.5057" stroke="#204F3A" stroke-width="3.88914" stroke-linecap="round"/>
<line opacity="0.5" x1="193.626" y1="102.659" x2="188.345" y2="91.3143" stroke="#204F3A" stroke-width="3.88914" stroke-linecap="round"/>
<line opacity="0.5" x1="437.962" y1="429.524" x2="446.527" y2="438.647" stroke="#204F3A" stroke-width="3.88914" stroke-linecap="round"/>
<line opacity="0.5" x1="474.729" y1="376.879" x2="485.663" y2="382.965" stroke="#204F3A" stroke-width="3.88914" stroke-linecap="round"/>
<line opacity="0.5" x1="493.598" y1="317.426" x2="506.1" y2="317.969" stroke="#204F3A" stroke-width="3.88914" stroke-linecap="round"/>
<line opacity="0.5" x1="490.651" y1="252.916" x2="502.667" y2="249.42" stroke="#204F3A" stroke-width="3.88914" stroke-linecap="round"/>
<line opacity="0.5" x1="471.79" y1="191.621" x2="482.627" y2="185.364" stroke="#204F3A" stroke-width="3.88914" stroke-linecap="round"/>
<line x1="163.975" y1="452.664" x2="156.157" y2="462.436" stroke="#3094A5" stroke-width="3.88914" stroke-linecap="round"/>
<line x1="120.241" y1="165.6" x2="110.255" y2="158.059" stroke="#3094A5" stroke-width="3.88914" stroke-linecap="round"/>
<line x1="405.423" y1="120.209" x2="413.169" y2="110.38" stroke="#3094A5" stroke-width="3.88914" stroke-linecap="round"/>
<line x1="458.922" y1="404.886" x2="469.403" y2="411.723" stroke="#3094A5" stroke-width="3.88914" stroke-linecap="round"/>
<line x1="414.361" y1="448.207" x2="421.715" y2="458.332" stroke="#3094A5" stroke-width="3.88914" stroke-linecap="round"/>
<line x1="452.281" y1="164.544" x2="461.543" y2="156.129" stroke="#3094A5" stroke-width="3.88914" stroke-linecap="round"/>
<line x1="482.435" y1="220.218" x2="494.106" y2="215.704" stroke="#3094A5" stroke-width="3.88914" stroke-linecap="round"/>
<line x1="493.514" y1="284.037" x2="506.028" y2="284.037" stroke="#3094A5" stroke-width="3.88914" stroke-linecap="round"/>
<line x1="485.825" y1="347.385" x2="497.831" y2="350.913" stroke="#3094A5" stroke-width="3.88914" stroke-linecap="round"/>
<line x1="165.12" y1="120.185" x2="156.985" y2="110.676" stroke="#3094A5" stroke-width="3.88914" stroke-linecap="round"/>
<line x1="223.367" y1="90.1234" x2="218.906" y2="78.4315" stroke="#3094A5" stroke-width="3.88914" stroke-linecap="round"/>
<line x1="285.05" y1="79.5945" x2="285.05" y2="67.0807" stroke="#3094A5" stroke-width="3.88914" stroke-linecap="round"/>
<line x1="348.623" y1="88.7743" x2="354.404" y2="77.6757" stroke="#3094A5" stroke-width="3.88914" stroke-linecap="round"/>
<line x1="121.105" y1="405.286" x2="111.317" y2="413.083" stroke="#3094A5" stroke-width="3.88914" stroke-linecap="round"/>
<line x1="93.0163" y1="347.495" x2="81.7289" y2="352.898" stroke="#3094A5" stroke-width="3.88914" stroke-linecap="round"/>
<line x1="83.3442" y1="285.396" x2="70.8304" y2="285.369" stroke="#3094A5" stroke-width="3.88914" stroke-linecap="round"/>
<line x1="91.6689" y1="224.28" x2="80.1595" y2="219.367" stroke="#3094A5" stroke-width="3.88914" stroke-linecap="round"/>
<path d="M575 286.5C575 444.73 446.73 573 288.5 573C130.27 573 2 444.73 2 286.5C2 128.27 130.27 0 288.5 0C446.73 0 575 128.27 575 286.5ZM16.8492 286.5C16.8492 436.529 138.471 558.151 288.5 558.151C438.529 558.151 560.151 436.529 560.151 286.5C560.151 136.471 438.529 14.8492 288.5 14.8492C138.471 14.8492 16.8492 136.471 16.8492 286.5Z" fill="#D9D9D9"/>
<path d="M575 286.5C575 444.73 446.73 573 288.5 573C130.27 573 2 444.73 2 286.5C2 128.27 130.27 0 288.5 0C446.73 0 575 128.27 575 286.5ZM16.8492 286.5C16.8492 436.529 138.471 558.151 288.5 558.151C438.529 558.151 560.151 436.529 560.151 286.5C560.151 136.471 438.529 14.8492 288.5 14.8492C138.471 14.8492 16.8492 136.471 16.8492 286.5Z" fill="url(#paint1_linear_287_1037)"/>
<defs>
<filter id="filter0_d_287_1037" x="0.490234" y="12.5464" width="580.077" height="580.449" filterUnits="userSpaceOnUse" color-interpolation-filters="sRGB">
<feFlood flood-opacity="0" result="BackgroundImageFix"/>
<feColorMatrix in="SourceAlpha" type="matrix" values="0 0 0 0 0 0 0 0 0 0 0 0 0 0 0 0 0 0 127 0" result="hardAlpha"/>
<feOffset dy="10.371"/>
<feGaussianBlur stdDeviation="5"/>
<feComposite in2="hardAlpha" operator="out"/>
<feColorMatrix type="matrix" values="0 0 0 0 0 0 0 0 0 0 0 0 0 0 0 0 0 0 0.1 0"/>
<feBlend mode="normal" in2="BackgroundImageFix" result="effect1_dropShadow_287_1037"/>
<feBlend mode="normal" in="SourceGraphic" in2="effect1_dropShadow_287_1037" result="shape"/>
</filter>
<filter id="filter1_d_287_1037" x="129.433" y="125.583" width="315.545" height="315.545" filterUnits="userSpaceOnUse" color-interpolation-filters="sRGB">
<feFlood flood-opacity="0" result="BackgroundImageFix"/>
<feColorMatrix in="SourceAlpha" type="matrix" values="0 0 0 0 0 0 0 0 0 0 0 0 0 0 0 0 0 0 127 0" result="hardAlpha"/>
<feOffset/>
<feGaussianBlur stdDeviation="35.5"/>
<feComposite in2="hardAlpha" operator="out"/>
<feColorMatrix type="matrix" values="0 0 0 0 0 0 0 0 0 0 0 0 0 0 0 0 0 0 0.1 0"/>
<feBlend mode="normal" in2="BackgroundImageFix" result="effect1_dropShadow_287_1037"/>
<feBlend mode="normal" in="SourceGraphic" in2="effect1_dropShadow_287_1037" result="shape"/>
</filter>
<filter id="filter2_i_287_1037" x="115.585" y="111.24" width="352.615" height="322.295" filterUnits="userSpaceOnUse" color-interpolation-filters="sRGB">
<feFlood flood-opacity="0" result="BackgroundImageFix"/>
<feBlend mode="normal" in="SourceGraphic" in2="BackgroundImageFix" result="shape"/>
<feColorMatrix in="SourceAlpha" type="matrix" values="0 0 0 0 0 0 0 0 0 0 0 0 0 0 0 0 0 0 127 0" result="hardAlpha"/>
<feOffset dy="4"/>
<feGaussianBlur stdDeviation="2"/>
<feComposite in2="hardAlpha" operator="arithmetic" k2="-1" k3="1"/>
<feColorMatrix type="matrix" values="0 0 0 0 0 0 0 0 0 0 0 0 0 0 0 0 0 0 0.25 0"/>
<feBlend mode="normal" in2="shape" result="effect1_innerShadow_287_1037"/>
</filter>
<linearGradient id="paint0_linear_287_1037" x1="430.095" y1="119.8" x2="153.649" y2="434.54" gradientUnits="userSpaceOnUse">
<stop stop-color="#00C4FF"/>
<stop offset="1" stop-color="#008D8B"/>
</linearGradient>
<linearGradient id="paint1_linear_287_1037" x1="127.749" y1="601.781" x2="495.38" y2="43.6142" gradientUnits="userSpaceOnUse">
<stop stop-color="white"/>
<stop offset="0.172144" stop-color="#CCCCCC"/>
<stop offset="0.403178" stop-color="#BDBDBD"/>
<stop offset="0.561211" stop-color="#A0A0A0"/>
<stop offset="0.708346" stop-color="#9C9C9C"/>
<stop offset="0.828125" stop-color="#EAEBEA"/>
<stop offset="1" stop-color="#D2D2D2"/>
</linearGradient>
</defs>
</svg>
