<svg width="573" height="584" viewBox="0 0 573 584" fill="none" xmlns="http://www.w3.org/2000/svg">
<g filter="url(#filter0_di_151_19034)">
<circle cx="286.499" cy="286.5" r="276.129" fill="#131918"/>
</g>
<circle cx="286.499" cy="286.5" r="281.314" stroke="url(#paint0_linear_151_19034)" stroke-width="10.371"/>
<g filter="url(#filter1_di_151_19034)">
<circle cx="283.222" cy="277.399" r="85.5611" transform="rotate(90 283.222 277.399)" fill="#1A1D20"/>
</g>
<circle cx="283.285" cy="278.712" r="137.027" transform="rotate(90 283.285 278.712)" stroke="#102C32" stroke-width="3.37059"/>
<g filter="url(#filter2_i_151_19034)">
<path d="M180.684 421.413C150.882 399.476 128.738 368.718 117.389 333.496C106.041 298.274 106.062 260.373 117.451 225.164C128.84 189.955 151.019 159.222 180.846 137.319C210.672 115.416 246.635 103.453 283.639 103.125C320.643 102.797 356.812 114.12 387.022 135.492C417.232 156.863 439.952 187.198 451.963 222.2C463.975 257.201 464.668 295.095 453.945 330.513C443.222 365.931 421.627 397.076 392.219 419.538L378.93 402.14C404.687 382.468 423.601 355.189 432.992 324.169C442.383 293.149 441.776 259.961 431.256 229.305C420.737 198.65 400.838 172.081 374.379 153.364C347.92 134.647 316.242 124.729 283.833 125.016C251.424 125.303 219.927 135.781 193.804 154.964C167.68 174.148 148.255 201.065 138.281 231.902C128.306 262.739 128.287 295.933 138.227 326.782C148.166 357.63 167.561 384.569 193.662 403.782L180.684 421.413Z" fill="#23312C"/>
</g>
<path d="M172.308 432.235C172.055 432.582 171.568 432.659 171.222 432.405C139.119 408.866 115.187 375.86 102.797 338.016C90.3263 299.925 90.183 258.871 102.387 220.694C114.592 182.517 138.523 149.159 170.777 125.366C203.031 101.573 241.966 88.5545 282.045 88.163C322.123 87.7716 361.305 100.027 394.018 123.186C426.73 146.345 451.308 179.228 464.256 217.16C477.204 255.091 477.862 296.139 466.138 334.467C454.49 372.546 431.207 406.013 399.57 430.174C399.228 430.435 398.74 430.368 398.481 430.026L395.943 426.674C395.683 426.331 395.751 425.843 396.093 425.582C426.764 402.153 449.336 369.703 460.63 332.782C472 295.613 471.361 255.805 458.805 219.02C446.248 182.235 422.413 150.346 390.689 127.887C358.966 105.428 320.968 93.5432 282.101 93.9228C243.234 94.3024 205.476 106.927 174.196 130.001C142.917 153.076 119.71 185.425 107.874 222.448C96.0384 259.471 96.1774 299.284 108.271 336.223C120.284 372.917 143.486 404.919 174.609 427.746C174.955 428 175.033 428.486 174.78 428.834L172.308 432.235Z" fill="url(#paint1_linear_151_19034)"/>
<line opacity="0.5" x1="425.475" y1="138.119" x2="433.931" y2="129.208" stroke="#204F3A" stroke-width="3.88914" stroke-linecap="round"/>
<line opacity="0.5" x1="138.642" y1="135.604" x2="130.836" y2="126.117" stroke="#204F3A" stroke-width="3.88914" stroke-linecap="round"/>
<line opacity="0.5" x1="138.954" y1="422.962" x2="129.667" y2="431.004" stroke="#204F3A" stroke-width="3.88914" stroke-linecap="round"/>
<line opacity="0.5" x1="101.183" y1="188.938" x2="90.6335" y2="182.644" stroke="#204F3A" stroke-width="3.88914" stroke-linecap="round"/>
<line opacity="0.5" x1="83.3841" y1="248.403" x2="71.7172" y2="244.556" stroke="#204F3A" stroke-width="3.88914" stroke-linecap="round"/>
<line opacity="0.5" x1="84.5931" y1="310.645" x2="72.7028" y2="313.733" stroke="#204F3A" stroke-width="3.88914" stroke-linecap="round"/>
<line opacity="0.5" x1="102.272" y1="371.544" x2="91.658" y2="377.728" stroke="#204F3A" stroke-width="3.88914" stroke-linecap="round"/>
<line opacity="0.5" x1="374.073" y1="100.363" x2="381.045" y2="90.2487" stroke="#204F3A" stroke-width="3.88914" stroke-linecap="round"/>
<line opacity="0.5" x1="314.266" y1="78.1685" x2="318.15" y2="66.514" stroke="#204F3A" stroke-width="3.88914" stroke-linecap="round"/>
<line opacity="0.5" x1="251.284" y1="79.7212" x2="249.605" y2="67.5517" stroke="#204F3A" stroke-width="3.88914" stroke-linecap="round"/>
<line opacity="0.5" x1="190.913" y1="99.2122" x2="185.728" y2="88.0752" stroke="#204F3A" stroke-width="3.88914" stroke-linecap="round"/>
<line opacity="0.5" x1="431.911" y1="421.528" x2="440.319" y2="430.484" stroke="#204F3A" stroke-width="3.88914" stroke-linecap="round"/>
<line opacity="0.5" x1="468.164" y1="369.606" x2="478.898" y2="375.581" stroke="#204F3A" stroke-width="3.88914" stroke-linecap="round"/>
<line opacity="0.5" x1="486.762" y1="310.968" x2="499.035" y2="311.501" stroke="#204F3A" stroke-width="3.88914" stroke-linecap="round"/>
<line opacity="0.5" x1="483.845" y1="247.351" x2="495.641" y2="243.919" stroke="#204F3A" stroke-width="3.88914" stroke-linecap="round"/>
<line opacity="0.5" x1="465.239" y1="186.908" x2="475.878" y2="180.766" stroke="#204F3A" stroke-width="3.88914" stroke-linecap="round"/>
<line x1="161.716" y1="444.383" x2="154.042" y2="453.975" stroke="#3094A5" stroke-width="3.88914" stroke-linecap="round"/>
<line x1="118.551" y1="161.293" x2="108.747" y2="153.89" stroke="#3094A5" stroke-width="3.88914" stroke-linecap="round"/>
<line x1="399.785" y1="116.492" x2="407.389" y2="106.844" stroke="#3094A5" stroke-width="3.88914" stroke-linecap="round"/>
<line x1="452.578" y1="397.226" x2="462.867" y2="403.937" stroke="#3094A5" stroke-width="3.88914" stroke-linecap="round"/>
<line x1="408.64" y1="439.955" x2="415.859" y2="449.895" stroke="#3094A5" stroke-width="3.88914" stroke-linecap="round"/>
<line x1="445.995" y1="160.208" x2="455.088" y2="151.948" stroke="#3094A5" stroke-width="3.88914" stroke-linecap="round"/>
<line x1="475.742" y1="215.108" x2="487.199" y2="210.676" stroke="#3094A5" stroke-width="3.88914" stroke-linecap="round"/>
<line x1="486.677" y1="278.045" x2="498.962" y2="278.045" stroke="#3094A5" stroke-width="3.88914" stroke-linecap="round"/>
<line x1="479.102" y1="340.516" x2="490.889" y2="343.98" stroke="#3094A5" stroke-width="3.88914" stroke-linecap="round"/>
<line x1="162.802" y1="116.504" x2="154.817" y2="107.169" stroke="#3094A5" stroke-width="3.88914" stroke-linecap="round"/>
<line x1="220.239" y1="86.8493" x2="215.86" y2="75.3715" stroke="#3094A5" stroke-width="3.88914" stroke-linecap="round"/>
<line x1="281.069" y1="76.4559" x2="281.069" y2="64.1712" stroke="#3094A5" stroke-width="3.88914" stroke-linecap="round"/>
<line x1="343.77" y1="85.4981" x2="349.445" y2="74.6027" stroke="#3094A5" stroke-width="3.88914" stroke-linecap="round"/>
<line x1="119.436" y1="397.665" x2="109.827" y2="405.319" stroke="#3094A5" stroke-width="3.88914" stroke-linecap="round"/>
<line x1="91.7311" y1="340.679" x2="80.6503" y2="345.983" stroke="#3094A5" stroke-width="3.88914" stroke-linecap="round"/>
<line x1="82.1792" y1="279.439" x2="69.8944" y2="279.412" stroke="#3094A5" stroke-width="3.88914" stroke-linecap="round"/>
<line x1="90.3798" y1="219.163" x2="79.0811" y2="214.34" stroke="#3094A5" stroke-width="3.88914" stroke-linecap="round"/>
<defs>
<filter id="filter0_di_151_19034" x="-0.000923157" y="10.3712" width="573" height="573" filterUnits="userSpaceOnUse" color-interpolation-filters="sRGB">
<feFlood flood-opacity="0" result="BackgroundImageFix"/>
<feColorMatrix in="SourceAlpha" type="matrix" values="0 0 0 0 0 0 0 0 0 0 0 0 0 0 0 0 0 0 127 0" result="hardAlpha"/>
<feOffset dy="10.371"/>
<feGaussianBlur stdDeviation="5.18552"/>
<feComposite in2="hardAlpha" operator="out"/>
<feColorMatrix type="matrix" values="0 0 0 0 0 0 0 0 0 0 0 0 0 0 0 0 0 0 0.25 0"/>
<feBlend mode="normal" in2="BackgroundImageFix" result="effect1_dropShadow_151_19034"/>
<feBlend mode="normal" in="SourceGraphic" in2="effect1_dropShadow_151_19034" result="shape"/>
<feColorMatrix in="SourceAlpha" type="matrix" values="0 0 0 0 0 0 0 0 0 0 0 0 0 0 0 0 0 0 127 0" result="hardAlpha"/>
<feOffset/>
<feGaussianBlur stdDeviation="1.29638"/>
<feComposite in2="hardAlpha" operator="arithmetic" k2="-1" k3="1"/>
<feColorMatrix type="matrix" values="0 0 0 0 0.00633681 0 0 0 0 0.125469 0 0 0 0 0.304167 0 0 0 0.5 0"/>
<feBlend mode="normal" in2="shape" result="effect2_innerShadow_151_19034"/>
</filter>
<filter id="filter1_di_151_19034" x="187.29" y="181.467" width="191.864" height="191.864" filterUnits="userSpaceOnUse" color-interpolation-filters="sRGB">
<feFlood flood-opacity="0" result="BackgroundImageFix"/>
<feColorMatrix in="SourceAlpha" type="matrix" values="0 0 0 0 0 0 0 0 0 0 0 0 0 0 0 0 0 0 127 0" result="hardAlpha"/>
<feOffset/>
<feGaussianBlur stdDeviation="5.18552"/>
<feComposite in2="hardAlpha" operator="out"/>
<feColorMatrix type="matrix" values="0 0 0 0 0 0 0 0 0 0 0 0 0 0 0 0 0 0 0.25 0"/>
<feBlend mode="normal" in2="BackgroundImageFix" result="effect1_dropShadow_151_19034"/>
<feBlend mode="normal" in="SourceGraphic" in2="effect1_dropShadow_151_19034" result="shape"/>
<feColorMatrix in="SourceAlpha" type="matrix" values="0 0 0 0 0 0 0 0 0 0 0 0 0 0 0 0 0 0 127 0" result="hardAlpha"/>
<feOffset/>
<feGaussianBlur stdDeviation="2.59276"/>
<feComposite in2="hardAlpha" operator="arithmetic" k2="-1" k3="1"/>
<feColorMatrix type="matrix" values="0 0 0 0 0.370833 0 0 0 0 0.370833 0 0 0 0 0.370833 0 0 0 0.25 0"/>
<feBlend mode="normal" in2="shape" result="effect2_innerShadow_151_19034"/>
</filter>
<filter id="filter2_i_151_19034" x="108.894" y="103.118" width="352.615" height="322.295" filterUnits="userSpaceOnUse" color-interpolation-filters="sRGB">
<feFlood flood-opacity="0" result="BackgroundImageFix"/>
<feBlend mode="normal" in="SourceGraphic" in2="BackgroundImageFix" result="shape"/>
<feColorMatrix in="SourceAlpha" type="matrix" values="0 0 0 0 0 0 0 0 0 0 0 0 0 0 0 0 0 0 127 0" result="hardAlpha"/>
<feOffset dy="4"/>
<feGaussianBlur stdDeviation="2"/>
<feComposite in2="hardAlpha" operator="arithmetic" k2="-1" k3="1"/>
<feColorMatrix type="matrix" values="0 0 0 0 0 0 0 0 0 0 0 0 0 0 0 0 0 0 0.25 0"/>
<feBlend mode="normal" in2="shape" result="effect1_innerShadow_151_19034"/>
</filter>
<linearGradient id="paint0_linear_151_19034" x1="125.748" y1="601.781" x2="493.379" y2="43.6144" gradientUnits="userSpaceOnUse">
<stop/>
<stop offset="0.146131" stop-color="#364243"/>
<stop offset="0.236314" stop-color="#212D2E"/>
<stop offset="0.350227" stop-color="#273A3A"/>
<stop offset="0.460801" stop-color="#2C3E3F"/>
<stop offset="0.652435" stop-color="#272E2E"/>
<stop offset="0.720306" stop-color="#464F4F"/>
<stop offset="1" stop-color="#1C2123"/>
</linearGradient>
<linearGradient id="paint1_linear_151_19034" x1="423.404" y1="111.677" x2="146.957" y2="426.417" gradientUnits="userSpaceOnUse">
<stop stop-color="#408DA4"/>
<stop offset="1" stop-color="#397170"/>
</linearGradient>
</defs>
</svg>
