<svg width="19" height="19" viewBox="0 0 19 19" fill="none" xmlns="http://www.w3.org/2000/svg">
<path d="M8.2431 3.64639C7.99044 4.72515 7.95608 5.84356 8.14204 6.9358C8.32801 8.02804 8.73054 9.07206 9.32597 10.0064C9.92139 10.9408 10.6977 11.7467 11.6091 12.3766C12.5206 13.0065 13.5489 13.4478 14.6334 13.6744C14.0632 14.2644 13.3803 14.7338 12.6252 15.0547C11.8701 15.3757 11.0583 15.5417 10.2378 15.5429C10.1617 15.5429 10.0846 15.5456 10.0074 15.5429C8.57898 15.4926 7.21331 14.9434 6.14766 13.9909C5.08201 13.0383 4.38372 11.7426 4.17411 10.3287C3.96449 8.91486 4.25679 7.47224 5.00023 6.25149C5.74367 5.03073 6.89127 4.10899 8.24366 3.64639M9.05774 2.31586C9.02539 2.31597 8.99311 2.31892 8.96128 2.32468C7.20669 2.63693 5.62964 3.58724 4.53377 4.99264C3.4379 6.39804 2.90069 8.15917 3.02557 9.93695C3.15044 11.7147 3.92858 13.3835 5.21016 14.6219C6.49174 15.8603 8.18616 16.5808 9.96717 16.6447C10.0576 16.648 10.148 16.6447 10.2372 16.6447C11.3941 16.6454 12.5342 16.3676 13.561 15.8347C14.5878 15.3017 15.4712 14.5294 16.1364 13.5829C16.1903 13.5013 16.2218 13.407 16.2277 13.3094C16.2335 13.2118 16.2136 13.1144 16.1698 13.027C16.1261 12.9395 16.0601 12.8651 15.9785 12.8113C15.8968 12.7575 15.8025 12.7261 15.7049 12.7203C14.6038 12.6237 13.5396 12.2752 12.5947 11.7017C11.6498 11.1282 10.8494 10.3451 10.2554 9.41296C9.66137 8.48081 9.28965 7.42455 9.16895 6.32583C9.04825 5.22711 9.18181 4.11535 9.5593 3.07647C9.59142 2.99332 9.6032 2.90369 9.59366 2.81507C9.58412 2.72644 9.55354 2.64137 9.50447 2.56695C9.4554 2.49254 9.38925 2.43092 9.31154 2.38725C9.23384 2.34357 9.14682 2.31909 9.05774 2.31586Z" fill="white"/>
</svg>
