<svg width="11" height="10" viewBox="0 0 11 10" fill="none" xmlns="http://www.w3.org/2000/svg">
<path d="M0.688153 9.73163C0.567637 9.60938 0.489626 9.45161 0.465638 9.28163C0.44165 9.11164 0.472956 8.93845 0.554934 8.78762L2.45805 5.19253L0.554935 1.59745C0.473037 1.4466 0.441776 1.27342 0.465761 1.10346C0.489746 0.933492 0.567708 0.77573 0.688152 0.653433L0.698924 0.642661C0.816832 0.52253 0.969596 0.442608 1.13552 0.414246C1.30144 0.385884 1.47207 0.410523 1.62319 0.484667L10.2816 4.4593C10.2842 4.4604 10.2868 4.46172 10.2892 4.46325C10.4259 4.52992 10.5411 4.63361 10.6218 4.76253C10.7024 4.89146 10.7453 5.04043 10.7455 5.19251C10.7457 5.34459 10.7032 5.49367 10.6228 5.62279C10.5425 5.75191 10.4275 5.85589 10.291 5.9229L10.2834 5.92685L1.62319 9.9004C1.46972 9.97568 1.29619 9.99991 1.12796 9.96955C0.959734 9.93919 0.805625 9.85582 0.688153 9.73163Z" fill="#FCFFFD"/>
</svg>
