<svg width="20" height="20" viewBox="0 0 20 20" fill="none" xmlns="http://www.w3.org/2000/svg">
<path d="M8.33333 17.5H11.6667C11.6667 18.4167 10.9167 19.1667 10 19.1667C9.08333 19.1667 8.33333 18.4167 8.33333 17.5ZM17.5 15.8334V16.6667H2.5V15.8334L4.16667 14.1667V9.16669C4.16667 6.58335 5.83333 4.33335 8.33333 3.58335V3.33335C8.33333 2.41669 9.08333 1.66669 10 1.66669C10.9167 1.66669 11.6667 2.41669 11.6667 3.33335V3.58335C14.1667 4.33335 15.8333 6.58335 15.8333 9.16669V14.1667L17.5 15.8334ZM14.1667 9.16669C14.1667 6.83335 12.3333 5.00002 10 5.00002C7.66667 5.00002 5.83333 6.83335 5.83333 9.16669V15H14.1667V9.16669Z" fill="#5C616C"/>
</svg>
