<svg width="25" height="27" viewBox="0 0 25 27" fill="none" xmlns="http://www.w3.org/2000/svg">
<rect x="0.5" y="0.922119" width="24" height="25.0185" rx="3.5" stroke="#ED7609"/>
<path d="M14.0163 9.26701L17.646 15.5589C18.1677 16.4625 17.9115 17.6514 17.0735 18.214C16.7923 18.4036 16.4644 18.5046 16.1294 18.5049H8.86942C7.88305 18.5049 7.08301 17.6424 7.08301 16.5775C7.08301 16.2173 7.17672 15.865 7.35276 15.5589L10.983 9.26701C11.5041 8.36335 12.6058 8.08655 13.4438 8.64916C13.6756 8.80475 13.8717 9.01615 14.0163 9.26701ZM12.4997 16.25C12.6433 16.25 12.7811 16.1906 12.8827 16.0849C12.9843 15.9792 13.0413 15.8358 13.0413 15.6863C13.0413 15.5367 12.9843 15.3934 12.8827 15.2876C12.7811 15.1819 12.6433 15.1225 12.4997 15.1225C12.356 15.1225 12.2182 15.1819 12.1167 15.2876C12.0151 15.3934 11.958 15.5367 11.958 15.6863C11.958 15.8358 12.0151 15.9792 12.1167 16.0849C12.2182 16.1906 12.356 16.25 12.4997 16.25ZM12.4997 11.1764C12.356 11.1764 12.2182 11.2358 12.1167 11.3415C12.0151 11.4472 11.958 11.5906 11.958 11.7401V13.9951C11.958 14.1446 12.0151 14.288 12.1167 14.3937C12.2182 14.4994 12.356 14.5588 12.4997 14.5588C12.6433 14.5588 12.7811 14.4994 12.8827 14.3937C12.9843 14.288 13.0413 14.1446 13.0413 13.9951V11.7401C13.0413 11.5906 12.9843 11.4472 12.8827 11.3415C12.7811 11.2358 12.6433 11.1764 12.4997 11.1764Z" fill="#ED7609"/>
</svg>
