<svg width="32" height="32" viewBox="0 0 32 32" fill="none" xmlns="http://www.w3.org/2000/svg">
<rect x="0.5" y="0.5" width="31" height="31" rx="6.45652" fill="#1A1A1A" stroke="#292929"/>
<g clip-path="url(#clip0_160_1102)">
<g clip-path="url(#clip1_160_1102)">
<path d="M26.6966 8.61674L20.1904 4.86292V12.37L26.6966 8.61674Z" fill="url(#paint0_linear_160_1102)"/>
<path d="M14.5176 11.4975C14.2855 11.6702 14.1672 11.7453 14.0872 12.0074C14.0515 12.1238 14.0615 12.3233 14.1159 12.4322C14.3042 12.8107 14.6558 13.131 14.948 13.4313C15.1644 13.654 15.3859 13.8729 15.6174 14.0806L17.9245 16.1507L18.5551 16.7069C18.5551 16.7069 18.8742 17.8336 18.8448 18.4041C18.8154 18.9746 18.0866 19.9493 17.9809 20.1777C17.8751 20.406 16.9167 20.8908 16.5038 21.0804C16.0916 21.2699 14.3637 21.5765 14.0684 21.554C13.7731 21.5314 13.8513 21.5258 13.8513 21.5258C14.2692 21.4345 14.7447 21.218 14.8335 20.7494C14.8573 20.6243 14.8366 20.4942 14.796 20.3735C14.6333 19.893 14.171 19.5114 13.8144 19.1711C13.501 18.8714 13.18 18.5799 12.8541 18.294C12.8541 18.294 10.525 16.2489 10.5244 16.2489C10.2448 16.0031 10.1522 15.6402 10.0927 15.2886C9.98577 14.653 10.0083 13.9805 10.2817 13.3881C10.53 12.8507 10.9855 12.409 11.4841 12.1012C11.5147 12.0825 11.5454 12.0643 11.576 12.0462C12.1115 11.7365 12.7115 11.552 13.3183 11.4444C13.6211 11.3906 13.9239 11.3693 14.2285 11.3355C14.3724 11.3193 14.6439 11.3405 14.8254 11.3411" fill="url(#paint1_linear_160_1102)"/>
<path fill-rule="evenodd" clip-rule="evenodd" d="M8.61621 23.0108V21.7633C9.04351 21.7436 9.47258 21.7278 9.90247 21.7119C11.52 21.6522 13.1491 21.592 14.7395 21.3242C15.8193 21.1421 17.0129 20.8675 17.8281 20.0855C18.2735 19.6582 18.5656 19.0839 18.6751 18.479C18.7289 18.1818 18.7396 17.8771 18.702 17.5775C18.7007 17.5667 18.6986 17.5486 18.6958 17.5248C18.6726 17.3269 18.6036 16.7368 18.555 16.7067C19.1612 17.082 19.5766 17.9497 19.8049 18.5966C20.2867 19.9616 20.3623 21.5763 19.7242 22.9044C19.1743 24.0493 18.1284 24.8988 16.9779 25.4374C14.3742 26.6561 11.4251 26.6198 8.61621 26.5629V25.6265C8.65732 25.6304 8.69898 25.6324 8.7411 25.6324C9.46666 25.6324 10.0548 25.0442 10.0548 24.3186C10.0548 23.5931 9.46666 23.0049 8.7411 23.0049C8.69898 23.0049 8.65732 23.0069 8.61621 23.0108Z" fill="url(#paint2_linear_160_1102)"/>
<path d="M20.1849 6.16752C18.1918 6.10183 16.198 6.04553 14.2418 6.51222C12.3781 6.95702 10.3543 7.87914 9.34399 9.58451C9.21637 9.79972 9.10564 10.0256 9.01555 10.2589C8.68399 11.1166 8.52884 12.2251 8.69024 13.1366C8.69275 13.1516 8.69587 13.1673 8.699 13.1823C8.88605 14.1332 9.3615 15.0403 9.69307 15.3863C10.0228 15.7303 10.4144 16.1345 10.4175 16.1376C10.2993 16.0169 10.2755 15.7829 10.2423 15.6246C10.1992 15.415 10.1779 15.2005 10.1785 14.9865C10.1798 14.5649 10.2649 14.1432 10.4319 13.7553C10.8967 12.6799 11.9239 12.0637 13.0056 11.7353C13.1601 11.6884 13.3159 11.6465 13.4729 11.6071C14.5902 11.3293 15.7388 11.1998 16.8874 11.146C17.4642 11.1191 18.0422 11.111 18.6197 11.1128C18.9087 11.1135 19.1977 11.1172 19.4861 11.1216C19.6237 11.1241 20.1849 11.1297 20.1849 11.1297C20.1849 11.1297 20.1849 10.7913 20.1849 10.7118V8.20633C20.1849 7.5457 20.1849 6.88445 20.1849 6.22383" fill="url(#paint3_linear_160_1102)"/>
</g>
</g>
<defs>
<linearGradient id="paint0_linear_160_1102" x1="17.5706" y1="6.45217" x2="25.8374" y2="11.4369" gradientUnits="userSpaceOnUse">
<stop offset="0.0001" stop-color="#C7C7C7"/>
<stop offset="1" stop-color="white"/>
</linearGradient>
<linearGradient id="paint1_linear_160_1102" x1="11.9939" y1="9.14783" x2="17.0925" y2="23.0047" gradientUnits="userSpaceOnUse">
<stop stop-color="#DCDCDC"/>
<stop offset="0.534923" stop-color="#D6D6D6"/>
<stop offset="1" stop-color="#A1D2FF"/>
</linearGradient>
<linearGradient id="paint2_linear_160_1102" x1="22.5357" y1="16.6867" x2="6.30152" y2="26.571" gradientUnits="userSpaceOnUse">
<stop stop-color="white"/>
<stop offset="0.425064" stop-color="#F4F4F4"/>
<stop offset="0.567041" stop-color="#E2E2E2"/>
<stop offset="0.686538" stop-color="#B0D7FF"/>
</linearGradient>
<linearGradient id="paint3_linear_160_1102" x1="20.1899" y1="4.26759" x2="10.1178" y2="16.9359" gradientUnits="userSpaceOnUse">
<stop stop-color="#FAFAFA"/>
<stop offset="0.427083" stop-color="#E6E6E6"/>
<stop offset="1" stop-color="#F4F4F4"/>
</linearGradient>
<clipPath id="clip0_160_1102">
<rect width="23.6878" height="23.6878" fill="white" transform="translate(4.17383 4.17389)"/>
</clipPath>
<clipPath id="clip1_160_1102">
<rect width="19.2464" height="22.4094" fill="white" transform="translate(8.61523 4.17395)"/>
</clipPath>
</defs>
</svg>
