<svg width="100" height="99" viewBox="0 0 100 99" fill="none" xmlns="http://www.w3.org/2000/svg">
<path d="M99 49.5C99 76.2764 77.0714 98 50 98C22.9285 98 1 76.2764 1 49.5C1 22.7236 22.9285 1 50 1C77.0714 1 99 22.7236 99 49.5Z" stroke="url(#paint0_linear_216_144)" stroke-width="2"/>
<circle cx="50" cy="49" r="29" fill="#1F1F21"/>
<rect x="49" y="10" width="1" height="2" fill="#15453A"/>
<rect x="49" y="87" width="1" height="2" fill="#15453A"/>
<rect x="49" y="87" width="1" height="2" fill="#15453A"/>
<rect x="59.2402" y="11.2165" width="1" height="2" transform="rotate(15 59.2402 11.2165)" fill="#15453A"/>
<rect x="39.3115" y="85.5928" width="1" height="2" transform="rotate(15 39.3115 85.5928)" fill="#15453A"/>
<rect x="39.3115" y="85.5928" width="1" height="2" transform="rotate(15 39.3115 85.5928)" fill="#15453A"/>
<rect x="59.2402" y="11.2165" width="1" height="2" transform="rotate(15 59.2402 11.2165)" fill="#15453A"/>
<rect x="39.3115" y="85.5928" width="1" height="2" transform="rotate(15 39.3115 85.5928)" fill="#15453A"/>
<rect x="39.3115" y="85.5928" width="1" height="2" transform="rotate(15 39.3115 85.5928)" fill="#15453A"/>
<rect x="44.2344" y="86.9598" width="1" height="2" transform="rotate(9.57599 44.2344 86.9598)" fill="#15453A"/>
<rect x="34.8076" y="84" width="1" height="2" transform="rotate(23.7881 34.8076 84)" fill="#15453A"/>
<rect x="38.7842" y="11.5337" width="1" height="2" transform="rotate(-15 38.7842 11.5337)" fill="#15453A"/>
<rect x="58.7129" y="85.91" width="1" height="2" transform="rotate(-15 58.7129 85.91)" fill="#15453A"/>
<rect x="58.7139" y="85.9099" width="1" height="2" transform="rotate(-15 58.7139 85.9099)" fill="#15453A"/>
<rect x="63.6602" y="84.6323" width="1" height="2" transform="rotate(-20.424 63.6602 84.6323)" fill="#15453A"/>
<rect x="54.0166" y="86.7825" width="1" height="2" transform="rotate(-6.21185 54.0166 86.7825)" fill="#15453A"/>
<rect x="21.2275" y="22.0367" width="1" height="2" transform="rotate(-45 21.2275 22.0367)" fill="#15453A"/>
<rect x="75.6748" y="76.4839" width="1" height="2" transform="rotate(-45 75.6748 76.4839)" fill="#15453A"/>
<rect x="75.6748" y="76.4836" width="1" height="2" transform="rotate(-45 75.6748 76.4836)" fill="#15453A"/>
<rect x="79.3203" y="72.9038" width="1" height="2" transform="rotate(-50.424 79.3203 72.9038)" fill="#15453A"/>
<rect x="72.043" y="79.5879" width="1" height="2" transform="rotate(-36.2119 72.043 79.5879)" fill="#15453A"/>
<rect x="11.2734" y="39.911" width="1" height="2" transform="rotate(-75 11.2734 39.911)" fill="#15453A"/>
<rect x="85.6504" y="59.8401" width="1" height="2" transform="rotate(-75 85.6504 59.8401)" fill="#15453A"/>
<rect x="85.6504" y="59.8397" width="1" height="2" transform="rotate(-75 85.6504 59.8397)" fill="#15453A"/>
<rect x="87.0166" y="54.9169" width="1" height="2" transform="rotate(-80.424 87.0166 54.9169)" fill="#15453A"/>
<rect x="84.0566" y="64.3438" width="1" height="2" transform="rotate(-66.2119 84.0566 64.3438)" fill="#15453A"/>
<rect x="22.0928" y="77.9244" width="1" height="2" transform="rotate(-135 22.0928 77.9244)" fill="#15453A"/>
<rect x="76.54" y="23.4772" width="1" height="2" transform="rotate(-135 76.54 23.4772)" fill="#15453A"/>
<rect x="76.54" y="23.477" width="1" height="2" transform="rotate(-135 76.54 23.477)" fill="#15453A"/>
<rect x="72.96" y="19.8318" width="1" height="2" transform="rotate(-140.424 72.96 19.8318)" fill="#15453A"/>
<rect x="79.6445" y="27.1085" width="1" height="2" transform="rotate(-126.212 79.6445 27.1085)" fill="#15453A"/>
<rect x="39.9678" y="87.8779" width="1" height="2" transform="rotate(-165 39.9678 87.8779)" fill="#15453A"/>
<rect x="59.8965" y="13.5016" width="1" height="2" transform="rotate(-165 59.8965 13.5016)" fill="#15453A"/>
<rect x="59.8965" y="13.5016" width="1" height="2" transform="rotate(-165 59.8965 13.5016)" fill="#15453A"/>
<rect x="54.9736" y="12.1346" width="1" height="2" transform="rotate(-170.424 54.9736 12.1346)" fill="#15453A"/>
<rect x="64.4004" y="15.0944" width="1" height="2" transform="rotate(-156.212 64.4004 15.0944)" fill="#15453A"/>
<rect x="60.4238" y="87.5606" width="1" height="2" transform="rotate(165 60.4238 87.5606)" fill="#15453A"/>
<rect x="40.4951" y="13.1844" width="1" height="2" transform="rotate(165 40.4951 13.1844)" fill="#15453A"/>
<rect x="40.4941" y="13.1845" width="1" height="2" transform="rotate(165 40.4941 13.1845)" fill="#15453A"/>
<rect x="35.5479" y="14.4621" width="1" height="2" transform="rotate(159.576 35.5479 14.4621)" fill="#15453A"/>
<rect x="45.1914" y="12.3119" width="1" height="2" transform="rotate(173.788 45.1914 12.3119)" fill="#15453A"/>
<rect x="77.9805" y="77.0577" width="1" height="2" transform="rotate(135 77.9805 77.0577)" fill="#15453A"/>
<rect x="23.5332" y="22.6105" width="1" height="2" transform="rotate(135 23.5332 22.6105)" fill="#15453A"/>
<rect x="23.5332" y="22.6108" width="1" height="2" transform="rotate(135 23.5332 22.6108)" fill="#15453A"/>
<rect x="19.8877" y="26.1906" width="1" height="2" transform="rotate(129.576 19.8877 26.1906)" fill="#15453A"/>
<rect x="27.165" y="19.5065" width="1" height="2" transform="rotate(143.788 27.165 19.5065)" fill="#15453A"/>
<rect x="87.9346" y="59.1834" width="1" height="2" transform="rotate(105 87.9346 59.1834)" fill="#15453A"/>
<rect x="13.5576" y="39.2543" width="1" height="2" transform="rotate(105 13.5576 39.2543)" fill="#15453A"/>
<rect x="13.5576" y="39.2547" width="1" height="2" transform="rotate(105 13.5576 39.2547)" fill="#15453A"/>
<rect x="12.1914" y="44.1775" width="1" height="2" transform="rotate(99.576 12.1914 44.1775)" fill="#15453A"/>
<rect x="15.1514" y="34.7506" width="1" height="2" transform="rotate(113.788 15.1514 34.7506)" fill="#15453A"/>
<rect x="38.7939" y="11.4753" width="1" height="2" transform="rotate(-15 38.7939 11.4753)" fill="#15453A"/>
<rect x="58.7227" y="85.8516" width="1" height="2" transform="rotate(-15 58.7227 85.8516)" fill="#15453A"/>
<rect x="58.7227" y="85.8516" width="1" height="2" transform="rotate(-15 58.7227 85.8516)" fill="#15453A"/>
<rect x="77.7842" y="77.0772" width="1" height="2" transform="rotate(135 77.7842 77.0772)" fill="#15453A"/>
<rect x="23.3369" y="22.6299" width="1" height="2" transform="rotate(135 23.3369 22.6299)" fill="#15453A"/>
<rect x="23.3369" y="22.6299" width="1" height="2" transform="rotate(135 23.3369 22.6299)" fill="#15453A"/>
<rect x="87.7832" y="59.2404" width="1" height="2" transform="rotate(105 87.7832 59.2404)" fill="#15453A"/>
<rect x="13.4072" y="39.3113" width="1" height="2" transform="rotate(105 13.4072 39.3113)" fill="#15453A"/>
<rect x="13.4072" y="39.3113" width="1" height="2" transform="rotate(105 13.4072 39.3113)" fill="#15453A"/>
<rect x="87.5244" y="38.7937" width="1" height="2" transform="rotate(75 87.5244 38.7937)" fill="#15453A"/>
<rect x="13.1484" y="58.7228" width="1" height="2" transform="rotate(75 13.1484 58.7228)" fill="#15453A"/>
<rect x="13.1484" y="58.7228" width="1" height="2" transform="rotate(75 13.1484 58.7228)" fill="#15453A"/>
<rect x="77.0771" y="21.2162" width="1" height="2" transform="rotate(45 77.0771 21.2162)" fill="#15453A"/>
<rect x="22.6299" y="75.6634" width="1" height="2" transform="rotate(45 22.6299 75.6634)" fill="#15453A"/>
<rect x="26.4141" y="79.0004" width="1" height="2" transform="rotate(45 26.4141 79.0004)" fill="#15453A"/>
<rect x="19.6211" y="72.0936" width="1" height="2" transform="rotate(56.6429 19.6211 72.0936)" fill="#15453A"/>
<rect x="14.8057" y="63.0924" width="1" height="2" transform="rotate(65.0218 14.8057 63.0924)" fill="#15453A"/>
<rect x="12.9629" y="54" width="1" height="2" transform="rotate(78.9558 12.9629 54)" fill="#15453A"/>
<rect x="49" y="10" width="1" height="2" fill="#15453A"/>
<rect x="49" y="87" width="1" height="2" fill="#15453A"/>
<rect x="49" y="87" width="1" height="2" fill="#15453A"/>
<rect x="49.0586" y="9.5" width="1.88235" height="3.76471" rx="0.5" fill="#FCFCFC"/>
<rect x="49.0586" y="85.7353" width="1.88235" height="3.76471" rx="0.5" fill="#FCFCFC"/>
<rect x="69.1846" y="14.3884" width="1.88235" height="3.76471" rx="0.5" transform="rotate(30 69.1846 14.3884)" fill="#FCFCFC"/>
<rect x="31.0674" y="80.4101" width="1.88235" height="3.76471" rx="0.5" transform="rotate(30 31.0674 80.4101)" fill="#FCFCFC"/>
<rect x="90" y="48.5588" width="1.88235" height="3.76471" rx="0.5" transform="rotate(90 90 48.5588)" fill="#FCFCFC"/>
<rect x="13.7646" y="48.5588" width="1.88235" height="3.76471" rx="0.5" transform="rotate(90 13.7646 48.5588)" fill="#FCFCFC"/>
<rect x="70.8154" y="83.6704" width="1.88235" height="3.76471" rx="0.5" transform="rotate(150 70.8154 83.6704)" fill="#FCFCFC"/>
<rect x="32.6973" y="17.6487" width="1.88235" height="3.76471" rx="0.5" transform="rotate(150 32.6973 17.6487)" fill="#FCFCFC"/>
<rect x="85.1113" y="68.6849" width="1.88235" height="3.76471" rx="0.5" transform="rotate(120 85.1113 68.6849)" fill="#FCFCFC"/>
<rect x="19.0889" y="30.5673" width="1.88235" height="3.76471" rx="0.5" transform="rotate(120 19.0889 30.5673)" fill="#FCFCFC"/>
<rect x="84.1699" y="28.6851" width="1.88235" height="3.76471" rx="0.5" transform="rotate(60 84.1699 28.6851)" fill="#FCFCFC"/>
<rect x="18.1484" y="66.8026" width="1.88235" height="3.76471" rx="0.5" transform="rotate(60 18.1484 66.8026)" fill="#FCFCFC"/>
<defs>
<linearGradient id="paint0_linear_216_144" x1="21.9457" y1="103.973" x2="85.2089" y2="6.95129" gradientUnits="userSpaceOnUse">
<stop/>
<stop offset="0.146131" stop-color="#484949"/>
<stop offset="0.236314" stop-color="#212D2E"/>
<stop offset="0.350227" stop-color="#939696"/>
<stop offset="0.460801" stop-color="#2C3E3F"/>
<stop offset="0.652435" stop-color="#272E2E"/>
<stop offset="0.720306" stop-color="#4B4B4B"/>
<stop offset="1" stop-color="#1C2123"/>
</linearGradient>
</defs>
</svg>
