<svg width="102" height="103" viewBox="0 0 102 103" fill="none" xmlns="http://www.w3.org/2000/svg">
<g filter="url(#filter0_di_94_11678)">
<ellipse cx="51.0005" cy="50.5383" rx="49.1538" ry="48.6923" fill="url(#paint0_radial_94_11678)"/>
</g>
<path d="M101.077 50.5385C101.077 77.9324 78.6647 100.154 51 100.154C23.3353 100.154 0.923077 77.9324 0.923077 50.5385C0.923077 23.1445 23.3353 0.923077 51 0.923077C78.6646 0.923077 101.077 23.1445 101.077 50.5385Z" stroke="url(#paint1_linear_94_11678)" stroke-width="1.84615"/>
<g filter="url(#filter1_i_94_11678)">
<path d="M98.4202 50.1051C98.4202 75.8009 77.1891 96.6314 50.9992 96.6314C24.8093 96.6314 3.57813 75.8009 3.57813 50.1051C3.57813 24.4093 24.8093 3.5788 50.9992 3.5788C77.1891 3.5788 98.4202 24.4093 98.4202 50.1051ZM5.93738 50.1051C5.93738 74.5225 26.1122 94.3167 50.9992 94.3167C75.8861 94.3167 96.061 74.5225 96.061 50.1051C96.061 25.6877 75.8861 5.89354 50.9992 5.89354C26.1122 5.89354 5.93738 25.6877 5.93738 50.1051Z" fill="url(#paint2_linear_94_11678)"/>
</g>
<circle cx="50.9994" cy="50.1051" r="35.7895" fill="#F2F7FF"/>
<line opacity="0.5" x1="76.4042" y1="24.0337" x2="77.9619" y2="22.3922" stroke="#A5E19B" stroke-width="0.692308" stroke-linecap="round"/>
<line opacity="0.5" x1="24.0059" y1="23.5624" x2="22.5681" y2="21.8149" stroke="#A5E19B" stroke-width="0.692308" stroke-linecap="round"/>
<line opacity="0.5" x1="24.0519" y1="76.0541" x2="22.3412" y2="77.5356" stroke="#A5E19B" stroke-width="0.692308" stroke-linecap="round"/>
<line opacity="0.5" x1="17.1611" y1="33.3033" x2="15.2177" y2="32.1438" stroke="#A5E19B" stroke-width="0.692308" stroke-linecap="round"/>
<line opacity="0.5" x1="13.9086" y1="44.1659" x2="11.7594" y2="43.4573" stroke="#A5E19B" stroke-width="0.692308" stroke-linecap="round"/>
<line opacity="0.5" x1="14.1241" y1="55.5335" x2="11.9338" y2="56.1024" stroke="#A5E19B" stroke-width="0.692308" stroke-linecap="round"/>
<line opacity="0.5" x1="17.3517" y1="66.6595" x2="15.3965" y2="67.7988" stroke="#A5E19B" stroke-width="0.692308" stroke-linecap="round"/>
<line opacity="0.5" x1="67.014" y1="17.1349" x2="68.2983" y2="15.2717" stroke="#A5E19B" stroke-width="0.692308" stroke-linecap="round"/>
<line opacity="0.5" x1="56.0896" y1="13.0784" x2="56.8052" y2="10.9315" stroke="#A5E19B" stroke-width="0.692308" stroke-linecap="round"/>
<line opacity="0.5" x1="44.5864" y1="13.3582" x2="44.2771" y2="11.1164" stroke="#A5E19B" stroke-width="0.692308" stroke-linecap="round"/>
<line opacity="0.5" x1="33.5567" y1="16.9163" x2="32.6016" y2="14.8648" stroke="#A5E19B" stroke-width="0.692308" stroke-linecap="round"/>
<line opacity="0.5" x1="77.5664" y1="75.8047" x2="79.1154" y2="77.4545" stroke="#A5E19B" stroke-width="0.692308" stroke-linecap="round"/>
<line opacity="0.5" x1="84.1915" y1="66.3216" x2="86.1688" y2="67.4222" stroke="#A5E19B" stroke-width="0.692308" stroke-linecap="round"/>
<line opacity="0.5" x1="87.5923" y1="55.6124" x2="89.8531" y2="55.7107" stroke="#A5E19B" stroke-width="0.692308" stroke-linecap="round"/>
<line opacity="0.5" x1="87.0628" y1="43.9909" x2="89.2357" y2="43.3588" stroke="#A5E19B" stroke-width="0.692308" stroke-linecap="round"/>
<line opacity="0.5" x1="83.6658" y1="32.948" x2="85.6256" y2="31.8165" stroke="#A5E19B" stroke-width="0.692308" stroke-linecap="round"/>
<line x1="28.2084" y1="79.9681" x2="26.7947" y2="81.7352" stroke="#A5E19B" stroke-width="0.692308" stroke-linecap="round"/>
<line x1="20.3355" y1="28.2532" x2="18.5295" y2="26.8895" stroke="#A5E19B" stroke-width="0.692308" stroke-linecap="round"/>
<line x1="71.7109" y1="20.0819" x2="73.1117" y2="18.3046" stroke="#A5E19B" stroke-width="0.692308" stroke-linecap="round"/>
<line x1="81.3423" y1="71.3672" x2="83.2377" y2="72.6035" stroke="#A5E19B" stroke-width="0.692308" stroke-linecap="round"/>
<line x1="73.3146" y1="79.1698" x2="74.6444" y2="81.0008" stroke="#A5E19B" stroke-width="0.692308" stroke-linecap="round"/>
<line x1="80.1524" y1="28.0697" x2="81.8273" y2="26.548" stroke="#A5E19B" stroke-width="0.692308" stroke-linecap="round"/>
<line x1="85.5827" y1="38.1" x2="87.6933" y2="37.2836" stroke="#A5E19B" stroke-width="0.692308" stroke-linecap="round"/>
<line x1="87.5766" y1="49.5968" x2="89.8396" y2="49.5968" stroke="#A5E19B" stroke-width="0.692308" stroke-linecap="round"/>
<line x1="86.1905" y1="61.0087" x2="88.3616" y2="61.6468" stroke="#A5E19B" stroke-width="0.692308" stroke-linecap="round"/>
<line x1="28.4211" y1="20.0724" x2="26.9501" y2="18.3527" stroke="#A5E19B" stroke-width="0.692308" stroke-linecap="round"/>
<line x1="38.9145" y1="14.658" x2="38.1079" y2="12.5436" stroke="#A5E19B" stroke-width="0.692308" stroke-linecap="round"/>
<line x1="50.0269" y1="12.7628" x2="50.0269" y2="10.4998" stroke="#A5E19B" stroke-width="0.692308" stroke-linecap="round"/>
<line x1="61.4779" y1="14.4182" x2="62.5233" y2="12.4111" stroke="#A5E19B" stroke-width="0.692308" stroke-linecap="round"/>
<line x1="20.485" y1="71.4319" x2="18.7149" y2="72.8419" stroke="#A5E19B" stroke-width="0.692308" stroke-linecap="round"/>
<line x1="15.4261" y1="61.0201" x2="13.3849" y2="61.9971" stroke="#A5E19B" stroke-width="0.692308" stroke-linecap="round"/>
<line x1="13.6853" y1="49.8334" x2="11.4223" y2="49.8285" stroke="#A5E19B" stroke-width="0.692308" stroke-linecap="round"/>
<line x1="15.1874" y1="38.8242" x2="13.106" y2="37.9359" stroke="#A5E19B" stroke-width="0.692308" stroke-linecap="round"/>
<line opacity="0.5" x1="33.0974" y1="82.7978" x2="31.7981" y2="84.6506" stroke="#A5E19B" stroke-width="0.692308" stroke-linecap="round"/>
<line opacity="0.5" x1="46.2228" y1="87.0023" x2="45.6146" y2="89.182" stroke="#A5E19B" stroke-width="0.692308" stroke-linecap="round"/>
<line opacity="0.5" x1="58.5905" y1="87.0189" x2="59.2531" y2="89.1827" stroke="#A5E19B" stroke-width="0.692308" stroke-linecap="round"/>
<line opacity="0.5" x1="69.3668" y1="82.4445" x2="70.4891" y2="84.4096" stroke="#A5E19B" stroke-width="0.692308" stroke-linecap="round"/>
<line x1="52.2407" y1="88.0302" x2="52.2407" y2="90.2932" stroke="#A5E19B" stroke-width="0.692308" stroke-linecap="round"/>
<line x1="64.1431" y1="84.4326" x2="65.2949" y2="86.3806" stroke="#A5E19B" stroke-width="0.692308" stroke-linecap="round"/>
<line x1="39.7117" y1="85.4453" x2="38.9187" y2="87.5648" stroke="#A5E19B" stroke-width="0.692308" stroke-linecap="round"/>
<defs>
<filter id="filter0_di_94_11678" x="0.000525713" y="1.84595" width="102" height="101.077" filterUnits="userSpaceOnUse" color-interpolation-filters="sRGB">
<feFlood flood-opacity="0" result="BackgroundImageFix"/>
<feColorMatrix in="SourceAlpha" type="matrix" values="0 0 0 0 0 0 0 0 0 0 0 0 0 0 0 0 0 0 127 0" result="hardAlpha"/>
<feOffset dy="1.84615"/>
<feGaussianBlur stdDeviation="0.923077"/>
<feComposite in2="hardAlpha" operator="out"/>
<feColorMatrix type="matrix" values="0 0 0 0 0 0 0 0 0 0 0 0 0 0 0 0 0 0 0.25 0"/>
<feBlend mode="normal" in2="BackgroundImageFix" result="effect1_dropShadow_94_11678"/>
<feBlend mode="normal" in="SourceGraphic" in2="effect1_dropShadow_94_11678" result="shape"/>
<feColorMatrix in="SourceAlpha" type="matrix" values="0 0 0 0 0 0 0 0 0 0 0 0 0 0 0 0 0 0 127 0" result="hardAlpha"/>
<feOffset/>
<feGaussianBlur stdDeviation="0.230769"/>
<feComposite in2="hardAlpha" operator="arithmetic" k2="-1" k3="1"/>
<feColorMatrix type="matrix" values="0 0 0 0 0.00633681 0 0 0 0 0.125469 0 0 0 0 0.304167 0 0 0 0.5 0"/>
<feBlend mode="normal" in2="shape" result="effect2_innerShadow_94_11678"/>
</filter>
<filter id="filter1_i_94_11678" x="3.57812" y="3.5788" width="94.8418" height="94.8988" filterUnits="userSpaceOnUse" color-interpolation-filters="sRGB">
<feFlood flood-opacity="0" result="BackgroundImageFix"/>
<feBlend mode="normal" in="SourceGraphic" in2="BackgroundImageFix" result="shape"/>
<feColorMatrix in="SourceAlpha" type="matrix" values="0 0 0 0 0 0 0 0 0 0 0 0 0 0 0 0 0 0 127 0" result="hardAlpha"/>
<feOffset dy="1.84615"/>
<feGaussianBlur stdDeviation="1.84615"/>
<feComposite in2="hardAlpha" operator="arithmetic" k2="-1" k3="1"/>
<feColorMatrix type="matrix" values="0 0 0 0 0.0833334 0 0 0 0 0.248332 0 0 0 0 0.833333 0 0 0 0.25 0"/>
<feBlend mode="normal" in2="shape" result="effect1_innerShadow_94_11678"/>
</filter>
<radialGradient id="paint0_radial_94_11678" cx="0" cy="0" r="1" gradientUnits="userSpaceOnUse" gradientTransform="translate(51.0005 50.5383) rotate(90) scale(48.6923 49.1538)">
<stop stop-color="white"/>
<stop offset="1" stop-color="white"/>
</radialGradient>
<linearGradient id="paint1_linear_94_11678" x1="22.3846" y1="106.154" x2="87" y2="7.15384" gradientUnits="userSpaceOnUse">
<stop stop-color="#D0D2D7"/>
<stop offset="0.172144" stop-color="#DFE4F2" stop-opacity="0.827856"/>
<stop offset="0.403178" stop-color="#BFC6D7"/>
<stop offset="0.561211" stop-color="#D0D5E2"/>
<stop offset="0.708346" stop-color="#EAF0FF"/>
<stop offset="0.828125" stop-color="#CBD1E2"/>
<stop offset="1" stop-color="#DAE0EF"/>
</linearGradient>
<linearGradient id="paint2_linear_94_11678" x1="50.9992" y1="3.5788" x2="50.9992" y2="96.6314" gradientUnits="userSpaceOnUse">
<stop stop-color="#F5FFF2"/>
<stop offset="1" stop-color="white"/>
</linearGradient>
</defs>
</svg>
