<svg width="18" height="18" viewBox="0 0 18 18" fill="none" xmlns="http://www.w3.org/2000/svg">
<g clip-path="url(#clip0_160_1285)">
<path d="M8.00957 2.77504V1.73754C8.00957 1.53117 8.09155 1.33325 8.23748 1.18732C8.3834 1.04139 8.58132 0.959412 8.78769 0.959412C8.99407 0.959412 9.19199 1.04139 9.33791 1.18732C9.48384 1.33325 9.56582 1.53117 9.56582 1.73754V2.77504C9.56582 2.98141 9.48384 3.17933 9.33791 3.32525C9.19199 3.47118 8.99407 3.55316 8.78769 3.55316C8.58132 3.55316 8.3834 3.47118 8.23748 3.32525C8.09155 3.17933 8.00957 2.98141 8.00957 2.77504ZM13.1971 9.00004C13.1971 9.87213 12.9385 10.7246 12.454 11.4498C11.9694 12.1749 11.2808 12.74 10.4751 13.0738C9.66938 13.4075 8.7828 13.4948 7.92747 13.3247C7.07213 13.1545 6.28646 12.7346 5.6698 12.1179C5.05313 11.5013 4.63318 10.7156 4.46304 9.86026C4.29291 9.00493 4.38023 8.11835 4.71396 7.31264C5.0477 6.50693 5.61286 5.81828 6.33798 5.33378C7.0631 4.84927 7.9156 4.59066 8.78769 4.59066C9.95676 4.59186 11.0776 5.05681 11.9043 5.88346C12.7309 6.71012 13.1959 7.83097 13.1971 9.00004ZM11.6408 9.00004C11.6408 8.43574 11.4735 7.88412 11.16 7.41492C10.8465 6.94573 10.4009 6.58004 9.87954 6.36409C9.3582 6.14815 8.78453 6.09164 8.23108 6.20173C7.67763 6.31182 7.16925 6.58356 6.77023 6.98257C6.37121 7.38159 6.09948 7.88997 5.98939 8.44342C5.8793 8.99687 5.9358 9.57054 6.15175 10.0919C6.3677 10.6132 6.73339 11.0588 7.20258 11.3723C7.67178 11.6858 8.2234 11.8532 8.78769 11.8532C9.54413 11.8523 10.2693 11.5514 10.8042 11.0166C11.3391 10.4817 11.64 9.75647 11.6408 9.00004ZM3.8278 5.14118C3.90018 5.21357 3.98611 5.27098 4.08068 5.31015C4.17525 5.34933 4.27661 5.36949 4.37897 5.36949C4.48133 5.36949 4.58269 5.34933 4.67726 5.31015C4.77183 5.27098 4.85776 5.21357 4.93014 5.14118C5.00252 5.0688 5.05994 4.98287 5.09911 4.8883C5.13828 4.79373 5.15844 4.69237 5.15844 4.59001C5.15844 4.48765 5.13828 4.38629 5.09911 4.29172C5.05994 4.19715 5.00252 4.11122 4.93014 4.03884L4.15202 3.26072C4.00584 3.11454 3.80757 3.03241 3.60084 3.03241C3.39411 3.03241 3.19585 3.11454 3.04967 3.26072C2.90349 3.4069 2.82137 3.60516 2.82137 3.81189C2.82137 4.01862 2.90349 4.21688 3.04967 4.36306L3.8278 5.14118ZM3.8278 12.8576L3.04967 13.6357C2.97729 13.7081 2.91987 13.794 2.8807 13.8886C2.84153 13.9832 2.82137 14.0845 2.82137 14.1869C2.82137 14.2892 2.84153 14.3906 2.8807 14.4852C2.91987 14.5797 2.97729 14.6657 3.04967 14.7381C3.19585 14.8842 3.39411 14.9664 3.60084 14.9664C3.70321 14.9664 3.80457 14.9462 3.89914 14.907C3.99371 14.8679 4.07963 14.8104 4.15202 14.7381L4.93014 13.9599C5.07632 13.8138 5.15844 13.6155 5.15844 13.4088C5.15844 13.202 5.07632 13.0038 4.93014 12.8576C4.78396 12.7114 4.5857 12.6293 4.37897 12.6293C4.17224 12.6293 3.97398 12.7114 3.8278 12.8576ZM13.1971 5.36879C13.2993 5.36887 13.4005 5.34881 13.495 5.30975C13.5894 5.2707 13.6753 5.21342 13.7476 5.14118L14.5257 4.36306C14.5981 4.29068 14.6555 4.20475 14.6947 4.11018C14.7339 4.01561 14.754 3.91425 14.754 3.81189C14.754 3.70953 14.7339 3.60817 14.6947 3.5136C14.6555 3.41903 14.5981 3.3331 14.5257 3.26072C14.4533 3.18834 14.3674 3.13092 14.2728 3.09175C14.1783 3.05258 14.0769 3.03241 13.9745 3.03241C13.8722 3.03241 13.7708 3.05258 13.6763 3.09175C13.5817 3.13092 13.4958 3.18834 13.4234 3.26072L12.6452 4.03884C12.5358 4.14767 12.4611 4.28661 12.4309 4.43798C12.4006 4.58934 12.416 4.7463 12.4751 4.88888C12.5343 5.03146 12.6345 5.15322 12.7631 5.23868C12.8916 5.32413 13.0427 5.36942 13.1971 5.36879ZM13.7476 12.8589C13.6014 12.7127 13.4032 12.6306 13.1964 12.6306C12.9897 12.6306 12.7914 12.7127 12.6452 12.8589C12.4991 13.0051 12.4169 13.2033 12.4169 13.4101C12.4169 13.6168 12.4991 13.8151 12.6452 13.9612L13.4234 14.7394C13.5696 14.8855 13.7678 14.9677 13.9745 14.9677C14.1813 14.9677 14.3795 14.8855 14.5257 14.7394C14.6719 14.5932 14.754 14.3949 14.754 14.1882C14.754 13.9815 14.6719 13.7832 14.5257 13.637L13.7476 12.8589ZM3.34082 9.00004C3.34082 8.79366 3.25884 8.59575 3.11291 8.44982C2.96699 8.30389 2.76907 8.22191 2.5627 8.22191H1.5252C1.31882 8.22191 1.1209 8.30389 0.974978 8.44982C0.829051 8.59575 0.74707 8.79366 0.74707 9.00004C0.74707 9.20641 0.829051 9.40433 0.974978 9.55025C1.1209 9.69618 1.31882 9.77816 1.5252 9.77816H2.5627C2.76907 9.77816 2.96699 9.69618 3.11291 9.55025C3.25884 9.40433 3.34082 9.20641 3.34082 9.00004ZM8.78769 14.4469C8.58132 14.4469 8.3834 14.5289 8.23748 14.6748C8.09155 14.8207 8.00957 15.0187 8.00957 15.225V16.2625C8.00957 16.4689 8.09155 16.6668 8.23748 16.8128C8.3834 16.9587 8.58132 17.0407 8.78769 17.0407C8.99407 17.0407 9.19199 16.9587 9.33791 16.8128C9.48384 16.6668 9.56582 16.4689 9.56582 16.2625V15.225C9.56582 15.0187 9.48384 14.8207 9.33791 14.6748C9.19199 14.5289 8.99407 14.4469 8.78769 14.4469ZM16.0502 8.22191H15.0127C14.8063 8.22191 14.6084 8.30389 14.4625 8.44982C14.3166 8.59575 14.2346 8.79366 14.2346 9.00004C14.2346 9.20641 14.3166 9.40433 14.4625 9.55025C14.6084 9.69618 14.8063 9.77816 15.0127 9.77816H16.0502C16.2566 9.77816 16.4545 9.69618 16.6004 9.55025C16.7463 9.40433 16.8283 9.20641 16.8283 9.00004C16.8283 8.79366 16.7463 8.59575 16.6004 8.44982C16.4545 8.30389 16.2566 8.22191 16.0502 8.22191Z" fill="#646A76"/>
</g>
<defs>
<clipPath id="clip0_160_1285">
<rect width="16.6" height="16.6" fill="white" transform="translate(0.487305 0.700012)"/>
</clipPath>
</defs>
</svg>
