<svg width="25" height="27" viewBox="0 0 25 27" fill="none" xmlns="http://www.w3.org/2000/svg">
<rect x="0.5" y="0.914795" width="24" height="25.0185" rx="3.5" stroke="#4970FE"/>
<g clip-path="url(#clip0_264_849)">
<path d="M9.91667 14.8554C10.1597 14.8554 10.3664 14.7668 10.5367 14.5895C10.7071 14.4122 10.7921 14.1973 10.7917 13.9448C10.7917 13.6918 10.7065 13.4767 10.5362 13.2994C10.3658 13.1221 10.1593 13.0337 9.91667 13.0341C9.67361 13.0341 9.46692 13.1228 9.29658 13.3C9.12625 13.4773 9.04128 13.6922 9.04167 13.9448C9.04167 14.1977 9.12683 14.4128 9.29717 14.5901C9.4675 14.7674 9.674 14.8558 9.91667 14.8554ZM12.8333 14.8554C13.0764 14.8554 13.2831 14.7668 13.4534 14.5895C13.6237 14.4122 13.7087 14.1973 13.7083 13.9448C13.7083 13.6918 13.6232 13.4767 13.4528 13.2994C13.2825 13.1221 13.076 13.0337 12.8333 13.0341C12.5903 13.0341 12.3836 13.1228 12.2132 13.3C12.0429 13.4773 11.9579 13.6922 11.9583 13.9448C11.9583 14.1977 12.0435 14.4128 12.2138 14.5901C12.3842 14.7674 12.5907 14.8558 12.8333 14.8554ZM15.75 14.8554C15.9931 14.8554 16.1997 14.7668 16.3701 14.5895C16.5404 14.4122 16.6254 14.1973 16.625 13.9448C16.625 13.6918 16.5398 13.4767 16.3695 13.2994C16.1992 13.1221 15.9927 13.0337 15.75 13.0341C15.5069 13.0341 15.3002 13.1228 15.1299 13.3C14.9596 13.4773 14.8746 13.6922 14.875 13.9448C14.875 14.1977 14.9602 14.4128 15.1305 14.5901C15.3008 14.7674 15.5073 14.8558 15.75 14.8554ZM12.8333 20.0158C12.0264 20.0158 11.2681 19.8563 10.5583 19.5374C9.84861 19.2184 9.23125 18.786 8.70625 18.24C8.18125 17.6936 7.76572 17.0511 7.45967 16.3125C7.15361 15.5738 7.00039 14.7846 7 13.9448C7 13.1049 7.15322 12.3157 7.45967 11.5771C7.76611 10.8384 8.18164 10.1959 8.70625 9.64954C9.23125 9.10315 9.84861 8.6707 10.5583 8.35217C11.2681 8.03365 12.0264 7.87418 12.8333 7.87378C13.6403 7.87378 14.3986 8.03324 15.1083 8.35217C15.8181 8.6711 16.4354 9.10356 16.9604 9.64954C17.4854 10.1959 17.9011 10.8384 18.2076 11.5771C18.514 12.3157 18.6671 13.1049 18.6667 13.9448C18.6667 14.7846 18.5134 15.5738 18.207 16.3125C17.9006 17.0511 17.485 17.6936 16.9604 18.24C16.4354 18.7864 15.8181 19.219 15.1083 19.538C14.3986 19.8569 13.6403 20.0162 12.8333 20.0158ZM12.8333 18.8016C14.1361 18.8016 15.2396 18.3311 16.1437 17.3901C17.0479 16.449 17.5 15.3006 17.5 13.9448C17.5 12.5889 17.0479 11.4405 16.1437 10.4995C15.2396 9.55848 14.1361 9.08798 12.8333 9.08798C11.5306 9.08798 10.4271 9.55848 9.52292 10.4995C8.61875 11.4405 8.16667 12.5889 8.16667 13.9448C8.16667 15.3006 8.61875 16.449 9.52292 17.3901C10.4271 18.3311 11.5306 18.8016 12.8333 18.8016Z" fill="#4970FE"/>
</g>
<defs>
<clipPath id="clip0_264_849">
<rect width="12" height="12.4889" fill="white" transform="translate(7 7.69995)"/>
</clipPath>
</defs>
</svg>
