<svg width="15" height="17" viewBox="0 0 15 17" fill="none" xmlns="http://www.w3.org/2000/svg">
<path d="M7.5004 0.583328C7.92033 0.583328 8.32306 0.750143 8.61999 1.04708C8.91692 1.34401 9.08374 1.74674 9.08374 2.16666C9.08374 3.04541 8.37915 3.74999 7.5004 3.74999C7.08048 3.74999 6.67775 3.58318 6.38082 3.28625C6.08389 2.98931 5.91707 2.58659 5.91707 2.16666C5.91707 1.74674 6.08389 1.34401 6.38082 1.04708C6.67775 0.750143 7.08048 0.583328 7.5004 0.583328ZM7.80915 10.7087C8.93371 10.7044 10.0574 10.7705 11.1737 10.9067C11.2212 8.75333 11.0312 6.85333 10.6671 6.125C10.5642 5.91125 10.4217 5.72916 10.2712 5.57083L3.88249 11.0492C4.95915 10.875 6.3129 10.7087 7.80915 10.7087ZM3.90624 12.4583C4.00915 13.8358 4.21499 15.2292 4.54749 16.4167H6.18624C5.95665 15.72 5.7904 14.9046 5.66374 14.0417C5.66374 14.0417 7.5004 13.6933 9.33707 14.0417C9.2104 14.9046 9.04415 15.72 8.81457 16.4167H10.4533C10.8017 15.1896 11.0075 13.7329 11.1104 12.2921C10.015 12.1596 8.91255 12.0935 7.80915 12.0942C6.28124 12.0942 4.95124 12.2604 3.90624 12.4583ZM7.5004 4.54166C7.5004 4.54166 5.1254 4.54166 4.33374 6.125C4.06457 6.66333 3.8904 7.82708 3.83499 9.26L9.0204 4.81083C8.23665 4.54166 7.5004 4.54166 7.5004 4.54166ZM12.7017 3.48875L11.7992 2.43583L9.0204 4.81874C9.45582 4.96916 9.91499 5.20666 10.2712 5.57083L12.7017 3.48875ZM14.3642 11.5321C14.2929 11.5083 13.1529 11.1362 11.1737 10.9067C11.1658 11.3579 11.1421 11.825 11.1104 12.2921C12.8917 12.5137 13.9129 12.8542 13.9287 12.8542L14.3642 11.5321ZM3.83499 9.26L0.71582 11.9358L1.4204 13.1075C1.43624 13.0996 2.35457 12.7433 3.90624 12.4583C3.81915 11.3421 3.7954 10.2417 3.83499 9.26Z" fill="#F01C1C"/>
</svg>
